<?xml version="1.0" encoding="utf-8"?>
<!-- Generator: Adobe Illustrator 18.0.0, SVG Export Plug-In . SVG Version: 6.00 Build 0)  -->
<!DOCTYPE svg PUBLIC "-//W3C//DTD SVG 1.1//EN" "http://www.w3.org/Graphics/SVG/1.1/DTD/svg11.dtd">
<svg version="1.1" id="Layer_1" xmlns="http://www.w3.org/2000/svg" xmlns:xlink="http://www.w3.org/1999/xlink" x="0px" y="0px"
	 viewBox="0 0 250 400" enable-background="new 0 0 250 400" xml:space="preserve">
<g>
	<path fill="#0E0E11" d="M149.1,156.4c2.5-0.6,5-1.3,7.4-1.9c0.3-0.3,0.7-0.4,1.2-0.4c0.9,0.2,1.6,0.6,2.1,1.4
		c0.2,0.4,0.2,0.8,0.2,1.3c-0.1,1-0.9,2.1,0.1,3c1.2,1,1.9-0.3,2.8-0.8c0.5-0.3,1.1-0.4,1.7-0.3c0.3,0.1,0.7,0.3,0.9,0.5
		c0.9,0.4,1.2-0.5,1.9-0.8c4.4-1.1,5.9-0.3,5.5,3.9c-0.3,3.1-0.6,6.3-1.4,9.4c-0.9,3.7-2.2,7.2-7.1,6.2c-5.2,25.5-8.3,50.7-1.9,73.7
		c-0.2-2.9-1.1-8.4,1.9-13.4c0.6-0.1,1,0.1,1.3,0.6c0.6,1.2,0.6,2.5,0.6,3.8c-0.4,6.3,0.5,12.6,1.5,18.8c0.6,3.5,2.1,6,4.9,8.2
		c13,10.3,24.9,21.8,35.7,34.5c1.5,1.8,3.9,3.5,2.3,6.5c-0.8,0.2-2.3,0.3-2.3,0.5c-0.3,4.5-2.9,9-0.4,13.6c-0.2,0.1-0.3,0.3-0.5,0.4
		c-3.2,0.2-3.3-2.2-3.6-4.4c-0.3-3.3,0.8-6.5,0.8-9.8c-0.1,3.2-1.2,6.3-1.1,9.6c0.1,4,1.9,5.9,5.6,6.3c0.2-0.1,0.4-0.1,0.6-0.2
		c1.9,2.1,4.2,4,5.5,6.5c0.9,1.8,0.3,4.3,0.5,6.4c0.1,1.3,0.1,3,0.9,3.9c3,3.6,3.4,8.8,7.5,11.6c0.1,0.1,0,0.6,0,0.9
		c-1.6,1.9-2.8,0.4-4-0.5c-1.5-1.2-2.3-3-3.2-4.7c-3.1-5.7-4.3-6.1-10.6-4c-4.5,1.5-8,4.4-11,7.9c-1.3,1.4-2,3-0.4,4.6
		c2.5,2.6,4.3,5.9,7.7,7.7c5.5,2.8,9.7,6.9,13.2,12c4.4,6.5,15.5,10.4,21.9,6.3c-2.4-4.7-3.3-10.3-6.6-14.8
		c-1.8-2.5-4.3-3.6-7.4-3.1c-0.8,0.1-1.6,0.3-2.3,0.4c-1.7,0.1-4,0.6-4.3-1.7c-0.3-2.2,1.8-2.6,3.5-2.9c-0.8-0.2-1.7,0.1-2.5-0.3
		c-0.6-0.3-1.1-0.8-1.1-1.6c1.6-2.9,6-1.6,7.3-5c2.9,0.3,2.6,3.1,3.6,4.8c1,1.7,1.8,3.3,3.5,4.6c2.2,1.8,3.5,4.7,4.9,7.3
		c1.4,2.8,2.4,5.8,3.6,8.7c2.5,5.4,1.8,8.7-2.7,12.8c-4.1,0-8.2,0-12.4,0c-4.7-3.3-9.4-6.6-14.1-10c-1-0.7-2-1.6-2.6-2.7
		c-1.9-3-4.6-5.1-7.5-7.1c-3.6-2.5-7.1-5.3-10.9-8.1c-4.3,3.4-9.4,4.3-15.2,2c-0.1-1.3-0.3-2.5-0.4-4.2c-2.7,1.4-4.9,2.8-7.3,3.9
		c-1.5,0.7-3.2,1.3-4.8,1.4c-11.3,0.7-22.7,1.4-34,1.8c-5,0.2-10.1,0.1-15.1-0.6c-5-0.7-5.5-3.3-1.9-7c0.4-0.4,1.1-0.5,1.6-0.8
		c0.3,0.3,0.7,0.6,1,0.9c2.4,1.4,5.1,1.9,7.8,1.6c12.2-1.2,24.6-1,36.8-2.6c2.5-0.3,4.9-1,7.2-2.2c4.5-2.2,9.4-2.7,15.2-2.8
		c-7.6-3.3-12.7-9.9-21.1-9.5c0.3,5,0.3,5-3.6,3.8c-0.5-0.5-1-1-1-1.6c-0.3,0.6,0.6,1,0.9,1.7c-0.2,2.3-2,2.3-3,1.2
		c-2.2-2.7-5.4-2.8-8.3-3.8c-0.2-0.5-0.2-0.9,0.1-1.3c1.1-1,2.1-2.1,3.4-3.4c1,0.6,2.4,1.4,4.3,2.4c-0.3-2-0.5-3.5-0.7-4.9
		c0.4-0.3,0.7-0.5,1.1-0.8c0.7,1.1,1.5,2.3,2.2,3.5c2.2-0.7,4.5-0.5,5.6-3.5c0.5-1.3,3.1-1.7,4.8-2.6c0.1,4.7,3.1,7,6.8,8.9
		c2.9,1.5,5.6,3.5,8.9,5.1c1.2-14.5,3.4-28.5-4.9-41.5c-1.7-2.6-3.5-5.3-3.5-8.7c0.1-0.5,0.4-0.8,0.9-1c2-0.3,2.7,1.3,3.5,2.6
		c3.3,5.6,6.1,11.5,8.6,17.5c3.5,8.2,1.4,16.6,0.9,24.9c-0.2,2.7-0.2,5.3,0.8,7.9c2.7-0.4,3.9-2.4,5.4-4c3.4-3.6,7.2-6.7,12.1-8.1
		c2-0.6,4.1-1.3,3.5-4.2c-0.5-2.5-1-5.1-4.3-5.4c-1.4-0.2-2.9-0.2-4.2-1.5c0.7-2.3,0.2-4.6-0.6-7.1c-1.6-5,0.1-10.1,1.2-15
		c0.8-3.7,0.1-6.3-2.6-8.9c-10-9.8-19.5-19.9-30.4-28.7c-2.1-1.7-3.8-3.8-4.8-6.4c-1.4-3.5-3.1-6.9-4.1-10.7
		c-2.4-9.5-2.5-9.5-13.2-9.9c-1.2,4.3,0,8.4,0.8,12.5c0.8,4,2.1,8,3.4,11.9c0.5,1.7,1.2,3.3,0.2,5c-0.3,0.4-0.8,0.5-1.3,0.3
		c-3.2-8.2-6.4-16.3-9.5-24.5c-0.3-0.8-0.2-1.9-0.2-2.8c-0.4-0.9-0.5-1.8,0.5-2.4c1.2-7.4-1.2-14.8-0.8-22.2
		c0.4-7.6,0.1-15.2-1.3-23.3c-1.7,3.8-1.6,7.3-1.6,10.9c0,2,0.8,4.1-0.1,6.1c-0.6,0.6-1.3,0.7-2.1,0.1c-0.6-1.3,0.2-4.3-2.9-2.3
		c-0.1-6.1,0.2-12.1,2.3-17.9c0.6-1.7,1.1-3.3-0.1-4.9c-2-2.7-1.2-5.3,0.1-8c2.3-4.9,4.5-10,5.2-15.4c-0.5,4.1-1.5,5.2-5,5.3
		c2.7-5.2,5-10.6,8.1-15.5C144,153.9,144.5,154.1,149.1,156.4c-0.6,0.8-1.4,1.1-2.3,1.3C148.8,159.5,148.6,157.2,149.1,156.4z"/>
	<path fill="#17171B" d="M15.8,156.4c5.4-1.2,10.8-2.6,16.2-3.7c3.3-0.7,6.8-0.8,10.2-1.2c0.5-0.2,0.9-0.3,1.4-0.1
		c0.8,0.4,1.9,0.5,1.9,1.8c-3.9,2.8-8.5,2.7-12.9,3.4c-3.9,0.7-7.9,1.1-11.7,2.4c0.4,1.3,1.7,1.3,2.1,2.1c0.2,2.5-1.6,2.7-3.3,2.7
		c-1.3,0-2.6-0.5-3.9-0.8C15.8,160.9,15.8,158.6,15.8,156.4z"/>
	<path fill="#02509B" d="M150.2,274.4c-1.5-5.3-2.9-10.6-4.4-15.8c-1.5-5.2-1.9-10.5-1.5-15.8c4.5,0.6,8.9,1.1,13,1.6
		c2.3,6.7,4.5,13.5,7,20.3c0.7,2,2,4,3.6,5.3c11.7,9.4,22,20.4,32.8,30.8c2.2,2.1,2.9,4,1.9,7.1c-1.2,3.7-1.4,7.7-2.1,11.5
		c-0.6,3.5,0.1,6.5,3.6,8.8c-1.4,1.2-2.3,2-3.2,2.8c0.2,0.3,0.4,0.6,0.6,0.6c7,0.2,7,0.2,8.7,7.1c0.1,0.5,0.4,0.9,0.5,1.3
		c0.1,0.5,0.1,0.9,0.2,1.8c-2.5,1-5.1,1.9-7.6,3c-2.1,1-4.2,2.1-5.9,3.6c-2.4,2-4.4,4.5-6.7,6.7c-1,1-2.4,1.7-4.3,3
		c0.1-4.7-1.4-8.1-0.4-12c0.9-3.6,1.1-7.5,1.1-11.2c-0.1-3.6-0.5-7.2-1.4-10.7c-2.2-7.8-6.5-14.6-10.3-21.7
		c-0.2-0.3-0.8-0.4-1.2-0.6c-4.9-11.6-12.3-22-16.8-31.8c4.1,10.1,12.4,20,16.5,32.1c1.7,3.5,3.2,7.2,5.1,10.6
		c3.9,7.2,6.1,14.8,5.5,23c-0.4,6.3-0.9,12.5-1.4,19.4c-6.6-3.6-13.4-6.8-18.8-12c0.7-1.7,1.2-2.9,1.7-4.1l0.2,0.1
		c0.6-0.1,0.8-0.4,0.9-0.9c0.5-0.1,0.9-0.4,1-1c0.5-0.1,0.9-0.4,1-1c0.5-0.1,0.9-0.4,0.9-0.9l0,0c0.9-0.3,0.6-1.3,1.1-1.8l0,0
		c0.4-0.3,0.6-0.8,0.9-1.2c0.4-0.5,0.8-1.1,0.9-1.8l-0.1,0c0.9-0.3,0.7-1.2,0.9-1.9l0.1,0.1c2.2-4.3,1.6-8.5-1-12.5
		c-2.2-3.4-4.1-7.1-6.7-10.2l0,0c-0.1-0.5-0.5-0.8-0.9-1.1L165,305c-0.7-1.4-1.2-2.9-2.5-4c-0.7-1.5-1.5-2.9-2.2-4.4
		c-0.3-0.7-0.1-1.7-1-2.2l0,0.1c-0.5-0.9-0.1-2.2-1.1-2.9c-0.8-1.3-1.4-2.7-2.1-4C154.3,283.2,151.1,279.3,150.2,274.4z"/>
	<path fill="#04519D" d="M133.5,173.2c1-0.8,2.2-1.4,3-2.4c1-1.3,1.6-3,3.3-4.3c-0.4,2.5-0.5,5.1-1.3,7.4c-1.3,3.8-3,7.5-4.7,11.1
		c-1.1,2.3-1.3,4.1,0.8,5.9c0.8,0.7,1.5,1.5,2.4,2.5c-3.7,3.6-4.4,7.9-4.1,12.6c0.1,2,0.2,4.1-1.5,5.7c-0.4,0.4-0.2,1.5-0.3,2.2
		c-0.1,0.2-0.2,0.4-0.4,0.4c-1.9,1.1-2.1,3.4-3.5,4.9c-3,3.1-6.2,4.1-9.7,1.5c-8.3-6.3-17.8-10.9-26-17.5c-4.6-3.7-4.7-5.1-1.1-9.6
		c3-3.7,6.2-7.2,7.6-11.9c2.9-4.1,3.5-4.2,6.9-1.3c1.8,1.6,3.9,2.7,5.6,4.3c0.3-0.1,0.5,0.1,0.6,0.4c1.1,1.4,1.9,3.1,3.5,4.1
		c2.2,0.9,2.2,2.7,1.9,4.7c-0.6,3.7-0.5,7.3,0.8,10.8c-0.8-3.7-1.5-7.4-0.7-11.2c0.3-1.2,0.6-2.7,2.3-2.6c1.6,0.1,1.9,1.5,1.9,2.8
		c0.2,3.2,1,6.2,1.7,9.2c-1.3-6.1-3.8-12.4,2.8-17.3c0.8-0.8,1.5-1.5,2.2-2.4c0.4-0.5,0.5-1.2,0.7-1.7l0,0c0.5-0.2,0.8-0.5,1-1
		l-0.1,0.1c0.8-0.4,0.6-1.3,1-1.9l0,0c0.5-0.2,0.8-0.5,0.9-1l0,0c0.9-0.3,0.6-1.3,1-1.9l0,0c1.2-0.6,1.1-2,1.9-2.9L133.5,173.2z"/>
	<path fill="#28388F" d="M145.2,349.4c0.6-0.1,1.3,0,1.8-0.2c2.2-0.9,3.8-0.6,5,1.7c0.6,1.1,1.8,1.9,3.2,3.3c0.2-1.4,0.3-2,0.4-2.6
		c0,0,0.2-0.2,0.2-0.2c1,0.3,2,0.7,4.1,1.3c-1.2-2.4-2-3.9-2.8-5.6c1.4-0.2,2.8-1.9,4.4,0c0.1,0.1,0.3,0.3,0.4,0.2
		c4.6-1.8,7.1,2.2,10.3,3.9c4,2.1,7.7,4.7,12.1,7.4c-4.6,0.5-8.7,0.9-12.8,1.4c-1.2,0.2-2.6,0.3-3.6,0.9c-6,3.8-12.8,3.5-19.5,3.9
		c-7.5,0.4-15,1.3-22.6,1.6c-3.9,0.2-7.8-0.4-11.7-0.8c-0.4,0-0.7-1.1-1.1-1.7c0.2-0.5,0.6-0.8,0.8-1.3l0,0.1c0.5-0.2,0.8-0.6,1.1-1
		l-0.1,0c0.6-0.5,1.5-0.3,2-1l-0.1,0c3.5-2.1,7.8-1.8,11.3-4l0,0c0.5-0.1,0.8-0.4,1.1-0.9l-0.1-0.2c1.2,0.2,1.5-0.9,2.3-1.4
		c0.7-0.4,1.5-0.8,2.2-1.1c0.6-0.1,1.1-0.5,1.5-1l-0.1,0c0.6-0.5,1.5-0.4,2-1.1c0.8-0.3,1.7-0.5,2.5-0.8c0.8-0.8,2.3,0.1,3-1.1
		l-0.1,0.1c0.6-0.2,1.2-0.3,1.8-0.3C144.4,349.1,144.8,349.2,145.2,349.4z"/>
	<path fill="#17171B" d="M98.8,182.2c-0.8,5.2-4.7,8.4-7.5,12.4c-0.9,1.3-2.1,2.4-3.5,3.9c1.8,1.6,3.4,3.4,5.3,4.6
		c5.3,3.6,10.8,7,16.2,10.5c2,1.3,3.8,2.8,5.6,4.4c5.3,4.7,8.7,4.4,13-1.2c0.7-0.9,1.7-1.5,2.6-2.3c-1.2,2.2-2.1,4.6-3.6,6.6
		c-2.1,2.9-5.9,3.5-8.9,1.7c-8.1-5.2-16.2-10.4-24.1-15.7c-2.2-1.5-4.2-3.3-6.1-5.2c-2.5-2.5-3.7-5.4-1.8-8.9
		c0.3-0.6,0.2-1.5,0.3-2.3c-1.7-1.5-3.4-2.9-5.2-4.5c0.9-1.2,1.6-2.1,2.3-2.9c-0.1-0.5-0.1-0.9-0.2-1c-1.9-1.9-3.7-3.9-5.9-5.4
		c-3.3-2.2-6.7-3.6-11.1-2.5c-4.6,1.2-9.6,1.1-14.2-0.8c-0.3-0.5-0.2-1,0.3-1.3c6.4-1.1,12.8-1.8,19.2-1.6c3.9,0.1,7.2,2.3,10.1,4.8
		c1.8,1.6,3.7,3,5.8,4c0.4,0.3,0.7,0.6,1,1c0.1,0.6,0,1.3-0.4,1.8c-2.6,3.1-1.4,5,2,6.1c2,1.2,2.7-0.3,3.5-1.6
		c1.1-1.8,1.8-3.9,4-4.8C98.1,181.7,98.5,181.9,98.8,182.2z"/>
	<path fill="#D5D7D4" d="M23,161.2c-1.7,0-3.4,0-5,0c-1.2-2.2-0.2-3.3,1.5-3.6c4.6-0.9,9.2-1.4,13.8-2.3c4.1-0.8,8.1-1.7,12.2-2.6
		c0.4-0.6,1.1-0.9,1.8-1.1c1.2-0.2,2.3-0.6,3.5-0.8c3,0.3,5.8-0.8,8.8-1c1.8,0.1,3.5-0.5,5.2-0.9c7.6-2.2,15.6-1.8,23.4-2.9
		c0.7,0,1.5,0,2.2,0c2.4-0.6,4.8-1.4,7.3-2c2.6-1.1,5.5-1.4,8.2-2.3c2.3-0.7,4.2-0.3,3.9,2.8c-3.6,4.5-9.2,3.9-13.9,4.6
		c-11.5,1.9-23,4.2-34.5,5.7c-1.9,0-3.6,0.8-5.4,1.1c-10,1.8-19.8,4.2-29.9,5.8c-1.1,0.1-2.1,0-3.1-0.4L23,161.2z"/>
	<path fill="#181515" d="M38.8,163.8c0.3-0.9,0.6-1.7,0.9-2.6c0.7-1.1,2-1,3.1-1.5c0.4-0.1,0.7-0.2,1.1-0.3c1-0.2,2-0.4,2.9-0.7
		c0.4-0.2,0.8-0.3,1.3-0.4c0.7-0.1,1.4-0.2,2-0.3c5.2,0.9,9.9-2.3,15.1-1.9c0.5,0.6,0.7,1.2,0.5,2c-3.4,4.6-8.5,4-13.5,4.3
		c2.7,1.6,5.9,1.5,8.3,3.3c0.2,0.5,0.3,0.9,0.1,1.4c-2,2.6-4.6,1.6-7,1c-4.6-1.1-8.9-3.3-13.7-3.5C39.5,164.6,39.1,164.3,38.8,163.8
		z"/>
	<path fill="#1D1918" d="M140.3,244.9c-0.3,0.7-0.6,1.4-0.9,2.2c-1.6-6.8-3.4-13.6-4.8-20.4c-0.7-3.3-0.5-6.9-0.7-10.3
		c0.5,0,1,0,1.5,0c1.1,0.6,1.4,1.7,1.5,2.8c1.3,8.2,2.9,16.4,3.9,24.6C140.9,244.3,140.6,244.6,140.3,244.9z"/>
	<path fill="#1D1918" d="M26,161.1c8.3-1.9,16.5-3.7,24.8-5.6c1.7-0.4,3.4-0.6,5-0.8c0.6,0.3,1.3,0.6,1.1,1.4
		c-1.9,2.4-4.9,1.8-7.3,2.6c-0.8,0.2-1.8-0.1-2.4,0.6l0.1-0.1c-1.1,1-2.8-0.1-3.9,1l0.1-0.1c-1.8,1.2-4.1-0.2-6,0.9
		c-3.4,0.3-6.9,0.6-10.3,0.8C26.7,161.7,26.2,161.6,26,161.1z"/>
	<path fill="#17171B" d="M165.9,306c0.3,0,0.7-0.1,0.9,0.1c4,4.5,7.4,9.1,9,15.1c0.8,3.1,0,5.3-2.1,7.4c1-6.1-1-11.2-4.5-16.1
		C167.7,310.6,167,308.2,165.9,306z"/>
	<path fill="#3F3A36" d="M38.8,163.8c0.5,0.1,1,0.1,1.4,0.2c2.4,3.4,5.5,5.8,9.7,6.5c1,0.2,2.2,0.6,2,2.1c0,0.3,0,0.6,0,0.9
		c-3.3-0.8-6.8-1.3-9.9-2.6C38.7,169.5,38,167.4,38.8,163.8z"/>
	<path fill="#17171B" d="M150.2,274.4c2.1,4.5,4.3,8.9,6.4,13.4c0.6,0.9,0,0.9-0.6,1c-2.3-4.8-4.6-9.5-6.8-14.3
		C149.5,274.4,149.8,274.4,150.2,274.4z"/>
	<path fill="#111319" d="M127.9,357c-0.1,0.6-0.1,1.6-0.4,1.7c-3.6,0.8-7.3,1.6-10.9,2.3c2-1,4-2.1,6-2.8
		C124.3,357.6,126.1,357.4,127.9,357z"/>
	<path fill="#080707" d="M156,288.7c0.2-0.3,0.4-0.6,0.6-1c0.7,1.3,1.3,2.6,2,3.9c0.3,0.5,0.2,1-0.3,1.4
		C157.6,291.6,156.8,290.1,156,288.7z"/>
	<path fill="#F0F1F0" d="M37.5,161.1c2-0.3,4-0.6,6-0.9c-1.3,0.3-2.5,0.7-3.8,1C39,161.2,38.2,161.1,37.5,161.1z"/>
	<path fill="#4B504C" d="M162.6,301.1c2.1,0.5,2.5,2.1,2.5,4C164.2,303.7,163.4,302.4,162.6,301.1z"/>
	<path fill="#17171B" d="M26,161.1c0.4,0.3,0.8,0.6,1.2,0.9c-1.5-0.1-3.3,1.8-4.3-0.8C23.9,161.1,25,161.1,26,161.1z"/>
	<path fill="#3F3A36" d="M172.7,330.4c-0.3,0.7-0.5,1.4-0.8,2.1c-0.3,0.3-0.6,0.3-0.8,0C171.6,331.8,172.1,331.1,172.7,330.4z"/>
	<path fill="#4B504C" d="M131.1,354.5c-0.2,1.3-0.8,2-2.3,1.4C129.6,355.4,130.3,355,131.1,354.5z"/>
	<path fill="#3F3A36" d="M158.4,293c0.1-0.5,0.2-0.9,0.3-1.4c0.2,1,0.5,2,0.7,3C159,294.1,158.7,293.6,158.4,293z"/>
	<path fill="#3F3A36" d="M142.3,349.4c-0.5,1.9-2,0.9-3,1.1C140.3,350.2,141.3,349.8,142.3,349.4z"/>
	<path fill="#3F3A36" d="M159.3,294.5c0.3,0.7,0.7,1.5,1,2.2C160,295.9,159.7,295.2,159.3,294.5z"/>
	<path fill="#4B504C" d="M173.5,328.5c-0.3,0.6-0.6,1.3-0.9,1.9C172.9,329.8,173.2,329.1,173.5,328.5z"/>
	<path fill="#111319" d="M116.6,360.9c-0.7,0.3-1.3,0.7-2,1C115.3,361.6,116,361.3,116.6,360.9z"/>
	<path fill="#0E0E11" d="M170.9,333.3c-0.4,0.6-0.7,1.2-1.1,1.8C170.1,334.6,170.5,334,170.9,333.3z"/>
	<path fill="#3F3A36" d="M136.7,351.3c-0.7,0.4-1.3,0.7-2,1.1C135.4,352.1,136,351.7,136.7,351.3z"/>
	<path fill="#3F3A36" d="M144.2,349.5c-0.7,0-1.3,0-2,0c0.7-0.3,1.3-0.7,2-1c0.3,0.2,0.4,0.5,0.3,0.7
		C144.4,349.4,144.3,349.5,144.2,349.5z"/>
	<path fill="#111319" d="M114.7,361.9c-0.4,0.3-0.7,0.7-1.1,1C114,362.5,114.4,362.2,114.7,361.9z"/>
	<path fill="#111319" d="M129,356.1c-0.4,0.3-0.7,0.6-1.1,0.9C128.3,356.7,128.6,356.4,129,356.1z"/>
	<path fill="#3F3A36" d="M134.8,352.4c-0.5,0.3-1,0.6-1.5,1C133.8,353,134.3,352.7,134.8,352.4z"/>
	<path fill="#111319" d="M113.7,362.7c-0.3,0.4-0.5,0.9-0.8,1.3c0-0.4-0.1-0.7-0.1-1.1C113.1,362.9,113.4,362.8,113.7,362.7z"/>
	<path fill="#17171B" d="M165.1,304.9c0.3,0.4,0.6,0.7,0.9,1.1C165.7,305.6,165.4,305.3,165.1,304.9z"/>
	<path fill="#0E0E11" d="M171.1,332.5c0.3,0,0.6,0,0.8,0c-0.4,0.3-0.7,0.6-1.1,0.9C170.9,333.1,171,332.8,171.1,332.5z"/>
	<path fill="#0E0E11" d="M169.8,335.2c-0.3,0.3-0.6,0.6-0.9,0.9C169.1,335.8,169.5,335.5,169.8,335.2z"/>
	<path fill="#0E0E11" d="M168.8,336.1c-0.3,0.3-0.6,0.6-0.9,0.9C168.2,336.7,168.5,336.4,168.8,336.1z"/>
	<path fill="#0E0E11" d="M167.9,337.1c-0.3,0.3-0.6,0.6-0.9,0.9C167.2,337.7,167.6,337.4,167.9,337.1z"/>
	<path fill="#0E0E11" d="M166.9,338c-0.3,0.3-0.6,0.6-0.9,0.9C166.3,338.6,166.6,338.3,166.9,338z"/>
	<path fill="#24201D" d="M144.2,349.5c0-0.3,0-0.7,0.1-1c0.2-0.2,0.5-0.3,0.8-0.3c0.1,0.4,0.1,0.8,0.2,1.3
		C144.8,349.4,144.5,349.5,144.2,349.5z"/>
	<path fill="#04519D" d="M210.8,310.7c-0.7-1.5-1.1-3.3-2.1-4.5c-11.2-13.3-23.6-25.5-37.4-36c-3.9-3-4.5-6.7-5-10.6
		c-0.8-5.4-0.7-11-1-16.4c0.8-1.2,1.7-0.5,2.6-0.2c0.6,0.3,1.3,0.5,2,0.1c0.4-0.3,0.6-0.7,0.7-1.2c0-0.5-0.1-1-0.4-1.5
		c-0.7-0.6-1.4-0.3-2.1,0.1c-2.3,1.6-2.5,0.1-2.5-1.7c-0.8-4,1.1-7.3,2.5-10.8c1.7-4.2,3.8-8.3,6.3-12.1c0.2-0.4,0.5-0.8,0.8-1.1
		c4.6-5.1,4.7-5.2,1.5-9.5c-1.6-1.7-3.3-3.4-5.2-4.8c-1.6-1.2-2.7-2.7-2.5-4.8c0.2-1.1,0.7-2.1,1.5-2.9c0.3-0.3,0.6-0.6,0.9-0.9
		c0.5-0.4,1-0.8,1.5-1.2c1.6-0.9,1.5-2.4,1.5-3.9c0.1-9.4-0.7-18.8,1.8-28.1c1.2-4.5,2.1-5.1,7-3.7c1.5,1.6,0.3,3.2,0,4.4
		c-0.4,0.9,0.5,0.8-0.1,0.6c0.3-1,0.7-2.1,1.1-3.1c5.9-4.8,12.8-4.7,18.1,0.3c1,1,2,2,3.1,2.9l0,0c4.6,8.8,11.2,16.2,16.3,24.7l0,0
		c3.1,5.9,6.3,11.7,9.4,17.5c2.8,5.1,3.7,10.2,1.8,15.9c-2.8,8.4-7,16.3-10.2,24.5c-0.9,2.2-2.6,3.1-4.8,3.3c-5,0.4-9.8,0-14-3.1
		c-2.4-1.8-5-3.4-7.5-5c-1.6-1-3.3-2.1-2.4-4.5c0.3-0.6,0.5-1.2,0.5-1.8c-0.1-0.4,0.5-0.6,0.4-0.7c-0.1-0.3-0.3-0.2-0.3,0.3
		c-0.1,0.8-0.3,1.6-0.8,2.3c-0.2,0.3-0.5,0.6-0.4,0.8c2.7,5.1-0.3,9.2-2.2,13.6c-4.1,9.3-4.2,18.3,2.1,26.9
		c4.2,5.7,10.4,8.5,16.1,12.2c0.8,0.5,2,0.5,2.8,0c3.9-2.7,5.7-0.2,7.5,2.7c8.6,14.1,14.2,29.3,15.6,45.8c0.3,4.1,1.8,8.1,0.5,12.2
		c-0.2,0.5-0.5,0.8-0.9,1.1c-2.9-0.8-3.3-3.6-4.3-5.7c-3.4-6.8-6.5-13.8-10.9-20.2l0,0c-0.6-1.1-1.2-2.2-2.1-3
		c-0.2-0.2-0.4-0.4-0.6-0.6c0-1-0.3-1.9-1-2.6c-0.4-0.4-0.6-1-1-1.4l0,0c-0.4-0.7-0.9-1.4-1.5-1.9c-0.3-0.1-0.5-0.3-0.4-0.6
		c-0.1-0.6-0.5-1-1-1.4l0.1,0.1C211.5,311.2,211.2,310.9,210.8,310.7L210.8,310.7z"/>
	<path fill="#121215" d="M194.5,232.6c-0.1,0.9-0.2,1.8-0.3,2.6c3.7,2.4,7.4,4.7,11,7.3c4.2,3,8.9,2.7,13.7,2.4c0.9,0,2.1-1,2.4-1.9
		c3.7-8.8,7.2-17.7,10.8-26.6c1.7-4.3,0.6-8.3-1.4-12.2c-2.7-5.2-5.5-10.3-8.1-15.5c-0.6-1.2-0.6-2.6-0.9-4c2.4,3.6,4.8,7.2,7,10.9
		c1.6,2.7,2.8,5.7,4.5,8.3c2.7,4.3,2.7,8.7,1,13.1c-3.3,8.7-7,17.2-10.3,25.9c-1.8,4.7-5.3,5.3-9.4,4.7c-4.4,3.7-4.2,8.5-3.8,13.3
		c0.3,3.1,2.3,4.4,6,4.8c2.3,0.2,4.7,0.4,7,1c3,0.9,3.6,4.3,1.1,6.3c-1.1,0.9-2.3,1.5-3.4,2.2c0.5,2.1,1.6,4.2,1.3,5.9
		c-0.3,1.5-2.2,2.6-4,4.5c1.8,3.6,4,7.7,6.1,11.8c2,4.1,4,8.1,5.7,12.3c4.3,10.9,6.4,22.4,7.2,34.1c0.2,3.8,0.4,7.6,0.4,11.4
		c0,1.7-0.3,3.3-0.6,5.8c-1.1-1-1.9-1.4-2.1-2c-3.9-12-9.1-23.5-15.4-34.4c-0.3-0.5-0.3-1.2-0.5-1.7c1.3,1.4,2.9,2.7,3.8,4.4
		c3.5,6.4,6.8,13,10.1,19.5c0.3,0.7,0.9,1.2,1.3,1.9c0,0,0.3,0.2,0.3,0.2l-0.1-0.4c-0.7-22.3-5.8-44.8-19.2-62.1
		c-1.5,0.7-2.9,1.9-4.3,2.1c-1.4,0.1-3-0.6-4.3-1.4c-3.8-2.2-7.4-4.6-11.1-7c-0.4-0.2-0.8-0.5-1-0.9c-2.3-3.8-4.8-7.4-6.7-11.3
		c-3.5-7.2-0.5-14.1,1.9-20.8c1-2.9,2.7-5.7,4.1-8.7c-1.2-1-2.2-1.8-3.6-3c1.2-1.1,2.2-2,3.2-3C193.9,232.1,194.2,232.1,194.5,232.6
		z"/>
	<path fill="#181515" d="M169.6,148.5c1.8,0.6,4-1.7,5.5,0.8c0,0.5-0.2,0.8-0.6,1.1c-2.7,0.5-4.3,2.1-5.4,4.6
		c-0.8,1.8-1.6,3.8-4,4.3c-0.5,0-1,0-1.4,0c-1.2-2,0.1-3,1.5-3.9c-0.5-0.2-1.4-0.2-1.8-1"/>
	<path fill="#131212" d="M36.6,127.1c-0.4-0.1-1,0-1.2-0.2c-3.3-4.4-3.1-9.1-1.4-14.3c4.9,0.5,9.5,0.9,14.1,1.4
		c0.7,0.2,1.4,0.3,2-0.2c0.6-0.6,1.4-1.1,1.8-1.8c1.2-1.8,2-3.9,3.4-5.5c0.6-0.8,2.2-1.2,3.3-1.1c2.1,0.3,2.6,2.3,1.1,3.9
		c-0.6,0.7-1.5,1.1-2.2,1.7c-0.7,0.6-1.4,1.2-2.5,2.2c4,2.3,3.8,5.7,2.6,9.2c-1.4,4-3.7,7.5-8.1,8.4c-3,0.6-4.4,1.9-4.2,5
		c0.1,1.1-0.3,2.1-0.5,3.2c-0.4,2.6,0.5,4.5,3.1,5.7c1.6,0.7,3.3,1.9,3,4.3c-0.8,0.8-1.7,1.1-2.7,1.2c-1.1,0-2-0.3-2.9-0.9
		c-3.7-0.6-7.3-1.2-11-2c-1.4-0.3-2.7-1-4.1-1.5c1.5-2.7,3.5-2.6,5.5-2.6c0.3,0.2,0.4,0.5,0.4,0.9c1.8,1.3,4,0.9,6.1,1.4
		c0-1.3-0.5-2.3-0.3-3.3c0.1-0.9-0.1-1.7,0.1-2.6c-0.3,1,0,2.1-0.2,3.2c-0.8,1.7-2.3,1.7-3.8,1.4c-0.8-0.3-1.4-0.7-1.3-1.6
		c1.9-0.1,3.2-0.8,3.1-3c-0.1-1.7-0.1-3.4,0-5.2c0.1-2-0.2-3.6-2.2-4.8c-0.6-0.3-0.7-1.4-1-2.2c1.6-1.7,0-3.2-0.3-4.8
		c-1.3-5.5,0.3-7.4,5.9-6.6c1.2,0.2,2.5-0.1,3.8,0.4c0.5,0-0.3-1-0.1-0.4c-2.5,0.6-4.9-0.7-7.4-0.3c-0.6,0.1-1.2,0.2-1.6,0.6
		c-0.2,0.3-0.5,0.6-0.7,0.9c-0.3,0.5-0.4,1.1-0.4,1.8C35.4,121.6,38.4,124.1,36.6,127.1z"/>
	<path fill="#181515" d="M60.5,153.8c3.7-0.8,7.3-1.7,11-2.3c11.4-1.9,22.8-3.6,34.1-5.6c1.3-0.2,2.4-1.3,3.6-1.9
		c0.5-0.5,1-0.6,1.5,0c0.7,2.3-0.1,3.6-2.5,3.9c-2.8,0.4-5.5,0.9-8.2,1.3c0,1.9,0.6,3.8-0.1,5c-0.9,1.5-2.9,2.3-4.4,3.3
		c-0.6,0.4-1.5,0.6-2.1,0.9c-2.5,1.4-3,2.9-2.3,5.8c0.5,2,0.9,4,1.4,6.2c1,0.6,2.2,1.4,3.3,2.1c0.5,0.6,0.5,1.3,0.2,2.1
		c-2.2,1.1-3.9,3.6-6.9,3c-0.6-5.2-1.1-10.5-1.8-15.8c-0.3-2.1,0.9-3.5,2.6-4.7c1.6-1.1,3.6-1.8,4.9-3.7c-5.3,1.7-11.3,0.8-14.8,6
		c-0.4,0.1-0.9,0.1-1.3-0.1c-2.3-4.8-6.1-1.2-9.2-1.5c-0.7-0.2-1.1-0.6-1.5-1.1c-0.5-0.2,1.2-2.1-0.9-1.2c-0.8,0.3-1.8,0-2.7,0.1
		c-1.3,0.3-2.6,0.9-3.9,0.1C60,155.1,60,154.5,60.5,153.8z"/>
	<path fill="#080707" d="M59.6,150.6c-3.1,0.4-6.1,0.8-9.2,1.2c-1,0.4-2.2,0.1-3.2,0.6c-0.6,0.1-1.2,0.2-1.7,0.2
		c-0.7-0.3-1.4-0.6-2-1c0.4-0.7,1.4-0.4,1.9-0.9l-0.1-0.2c0.8-0.6,1.6-0.8,2.6-0.8c1.1,0.2,2.2-0.7,3.3-0.1c3.2-0.3,6.5-0.6,9.7-1.1
		c2.3-0.3,4.6-0.8,7.4-1.3c-1.9-5-3.8-10.1-5.8-15.4c1.5-1.9,3.6-3,6.1-3.4c0.9,0,1.8-0.4,2.5,0.5c0.2,1.3-0.8,1.5-1.6,1.8
		c0,0-0.3,0-0.3,0s0.2,0.3,0.2,0.2c0.7-0.1,1.2,0.1,1.7,0.5c0.2,0.4,0.2,0.7,0.1,1.1c-0.6,1.1-1.1,2.1-1.8,3.1
		c-0.5,0.9-0.1,1.8,0,2.7c1.2,6,2.6,6.7,8.3,4.3c0.3-0.3,0.6-0.6,0.9-0.9c1.4-2.3-0.3-4.5-0.1-6.8c0.2-1.1,0.1-2.5,1.9-2.5
		c0.8,2.3,1.3,4.7,2.3,6.9c1.1,2.6,0.9,4.5-1.8,6.2c1,0,2.1,0,3.1,0c0.5,0,0.8-0.4,1.3-0.5c3.1-0.4,6.2-0.9,9.2-1.3
		c1-0.3,2.1-0.8,2.1,1c-1.9,0.6-3.8,1.2-5.7,1.7c-0.7-0.3-1.3-0.3-2,0c-8.2,1.1-16.4,2.1-24.5,3.2C62.9,150.7,61.1,149.7,59.6,150.6
		z"/>
	<path fill="#121215" d="M205.2,160.2c-0.9-0.3-2.1-0.4-2.7-1c-6.6-5.8-10.1-6.1-18-1.4c-0.7-0.2-0.7-0.8-1.1-1.3
		c-2.5-1.2-2.5-1.2-5.2-0.8c-2.6,9.5-3.1,19.2-2.4,28.9c0.1,1.4,0,2.8,0.1,4.3c-0.6,0.3-1.1,0.3-1.6-0.2c-1.5-1.8-1.7-4-1.9-6.2
		c-0.7-10.9,1.2-21.7,2.1-32.5c0.2-0.2,0.4-0.4,0.6-0.6c4.8,4.4,10.2,4.7,16.5,3.4C197.6,151.4,202.5,154.4,205.2,160.2z"/>
	<path fill="#0C0F15" d="M126.2,186c-1,1.4-1.9,2.9-2.9,4.3c-2.2,5.2-1.3,10.8,2.3,16.3c-3.6,0.6-4.1-2-4.9-3.5
		c-0.8-1.6-0.8-3.6-1-5.5c-0.2-1.9-0.3-3.9-0.9-5.8c-4.4,5.3,0.8,11-0.6,17c-3.9-3.8-3.9-8.1-3-12.4c0.5-2.5,1-4.9-1.4-6.7
		c-0.4-0.6-0.3-1,0.2-1.5c2,1.4,4,1.1,6-0.2c1.7-1.1,3.4-2,5.2-3.1C126.1,184.7,126.5,185,126.2,186z"/>
	<path fill="#121215" d="M221.5,184.8c-0.8-0.6-1.9-1-2.4-1.8c-4.1-5.9-8.2-11.8-12.2-17.8c-1-1.5-2.6-2.9-1.6-5.1
		C211.8,167.6,217.7,175.5,221.5,184.8z"/>
	<path fill="#111319" d="M98.8,182.2c-0.4,0-0.7-0.1-1.1-0.1c-1.2-2.3-1.1-4.5-0.2-6.9c0.5-0.2,0.9-0.2,1.4,0
		c3.8,3.3,7.6,6.5,11.4,9.8c-3-1.8-6-3.5-9.4-5.5C100.4,180.2,99.6,181.2,98.8,182.2z"/>
	<path fill="#24201D" d="M96.7,144.9c-0.7-0.3-1.4-0.7-2.1-1c4.6-1.4,9.3-2.9,14.2-4.4c1.7,0.9,1.9,2.7,2,4.6c-0.5,0-1,0-1.5,0
		c-0.7-2.5-2.4-1.8-4.1-1.4C102.3,143.5,99.5,144.2,96.7,144.9z"/>
	<path fill="#181515" d="M80.4,132.7c-0.3,0.9-0.5,1.9-0.8,2.8c-1.3,0.4-1.6-0.6-1.9-1.4c-0.5-1.3-1.3-1.5-2.5-0.9
		c-0.4,0.2-0.8,0.3-1.2,0.4c-0.7,0.1-1.3,0.1-2-0.1c-0.4-0.2-0.7-0.5-1-0.9c0-0.3,0-0.6,0-0.9c-0.4-1.1,0.6-1.4,1.2-1.8
		c0.9-0.4,1.9-0.7,2.7-1.2c0.7-0.4,1.2-1,1.8-1.4C80.4,128.2,80.4,128.2,80.4,132.7z"/>
	<path fill="#3F3A36" d="M76.7,127.1c-0.4,0.8-0.8,1.7-1.1,2.5c-1.2-1-2.1,0.3-3.2,0.5c-0.6,0-1.2,0.1-1.5-0.6
		c-0.8-0.4-1.5-0.7-2.3-1.1C71.3,127.9,73.8,125.9,76.7,127.1z"/>
	<path fill="#24201D" d="M56,97.9c0.7,0.8,1.2,1.3,1.6,1.9c-0.7,0.6-1.5,1.3-2.2,1.9c-0.4-0.6-1.3-1.3-1.2-1.7
		C54.4,99.2,55.2,98.7,56,97.9z"/>
	<path fill="#24201D" d="M114,188.2c-0.1,0.5-0.1,1-0.2,1.5c-1.6-1-3.2-1.9-2.9-4.2C112,186.4,113,187.3,114,188.2z"/>
	<path fill="#4B504C" d="M65.1,102.6c-0.9-0.2-1.8-0.4-2.7-0.6c0.1-0.6,0.1-1,0.3-1.1C63.9,100.6,63.9,100.6,65.1,102.6z"/>
	<path fill="#D5D7D4" d="M48,150.6c-0.9,0-1.8,0-2.8,0c0-0.5,0-1,0-1.5c0.8,0,1.7,0,2.5,0C48.9,149.4,48.6,150,48,150.6z"/>
	<path fill="#4B504C" d="M215.7,316.3c1,0.8,2.8,1.4,1,3.1c-0.6-1-1.2-2.1-1.8-3.1C215.2,316,215.4,316,215.7,316.3z"/>
	<path fill="#0E0E11" d="M133.6,173.4c0.3,1.6,0.7,3.2-1.9,2.9C132.4,175.3,133,174.4,133.6,173.4z"/>
	<path fill="#111319" d="M126.2,186c-0.4-0.4-0.7-0.7-1.1-1.1c0.6-0.7,1.2-1.4,1.9-2.1c0.6,0.2,0.6,0.7,0.9,1.1
		C127.4,184.7,126.8,185.3,126.2,186z"/>
	<path fill="#3F3A36" d="M48,150.6c-0.1-0.5-0.2-1-0.3-1.5c1-0.1,2.1-0.2,3.1-0.3c0.2,0.3,0.3,0.6,0.3,0.9
		C50.1,150,49.1,150.3,48,150.6z"/>
	<path fill="#121215" d="M217.3,320c1.7,0.3,2.4,1.3,2.1,3C218.7,322.1,218,321,217.3,320z"/>
	<path fill="#0E0E11" d="M208.1,324.8c1.5-0.2,2,0.5,1.9,1.9l-0.1,0.1c-1.5,0.3-2.1-0.4-1.9-1.9L208.1,324.8z"/>
	<path fill="#24201D" d="M213.1,313.5c1.2,0.1,1.9,0.6,1.5,1.9C214.1,314.8,213.6,314.1,213.1,313.5z"/>
	<path fill="#181515" d="M35.8,143.8c0-0.3,0-0.6,0-0.9c0.3-0.2,0.7-0.4,1-0.6c0.4,0.3,0.9,0.7,1.3,1
		C37.5,144.4,36.9,145,35.8,143.8z"/>
	<path fill="#4B504C" d="M45.3,150.8c-0.6,0.3-1.3,0.6-1.9,0.9c-0.4-0.1-0.8-0.1-1.2-0.2C43.3,151.3,44.3,151,45.3,150.8z"/>
	<path fill="#3F3A36" d="M99,175.2c-0.5,0.1-1,0.2-1.4,0.3c-0.8,0.2-1.2-0.3-1.2-1c0.1-0.5,0.4-0.7,0.9-0.8
		C97.8,174.2,98.4,174.7,99,175.2z"/>
	<path fill="#3F3A36" d="M95.7,174.4c0-0.6,0-1.2,0-1.8c0.5,0.4,1,0.7,1.5,1.1c-0.2,0.3-0.5,0.7-0.7,1
		C96.1,174.8,95.9,174.7,95.7,174.4z"/>
	<path fill="#0E0E11" d="M127.9,184c-0.3-0.4-0.6-0.7-0.9-1.1c0.3-0.3,0.6-0.6,0.9-0.9C128,182.7,128,183.3,127.9,184z"/>
	<path fill="#4B504C" d="M50.1,113.7c-0.7,0.1-1.3,0.2-2,0.2C48.8,113.8,49.4,113.7,50.1,113.7z"/>
	<path fill="#0E0E11" d="M131.8,176.3c0.4,1,0.4,1.9-1,1.9C131.1,177.6,131.4,176.9,131.8,176.3z"/>
	<path fill="#0E0E11" d="M129.9,179.2c-0.3,0.6-0.7,1.3-1,1.9C129.2,180.5,129.6,179.8,129.9,179.2z"/>
	<path fill="#3F3A36" d="M85.3,145.2c-0.4,0.2-0.8,0.4-1.3,0.5C84.5,145.6,84.9,145.4,85.3,145.2z"/>
	<path fill="#0E0E11" d="M129,181c-0.3,0.3-0.7,0.7-1,1C128.3,181.7,128.6,181.4,129,181z"/>
	<path fill="#0E0E11" d="M130.8,178.2c-0.3,0.3-0.6,0.7-0.9,1C130.2,178.8,130.5,178.5,130.8,178.2z"/>
	<path fill="#0E0E11" d="M210.8,310.6c0.3,0.3,0.7,0.7,1,1C211.5,311.3,211.1,311,210.8,310.6z"/>
	<path fill="#0E0E11" d="M211.8,311.5c0.3,0.5,0.6,0.9,1,1.4C212.4,312.5,212.1,312,211.8,311.5z"/>
	<path fill="#24201D" d="M215.7,316.3c-0.3,0-0.6,0-0.9-0.1c-0.2-0.3-0.3-0.5-0.2-0.9C215,315.7,215.3,316,215.7,316.3z"/>
	<path fill="#28388F" d="M224.6,356.1c0.1,1.1,0.2,2.3,0.3,3.5c-2.3,0.5-4.8,1.1-7.3,1.6c-0.3,0.3-0.3,0.5-0.1,0.8
		c0.3,0.4,0.7,0.4,1.1,0.1c2.3,0.4,5-1.1,7.2,1.3c-2.8,0.6-5.4,1.2-9.1,1.9c2.4,1.7,3.8,1.5,5.3,1.1c5.6-1.6,8.7-0.4,11.6,5.1
		c2.3,4.4,3.9,9.2,5.8,13.9c0.2,0.5-0.1,1.2-0.1,1.8c-8.8,2.4-16.4,0.6-22.8-5.9c-0.2-0.2-0.5-0.4-0.7-0.7c-3.5-6.3-9.3-10-15-13.8
		c-3.4-2.3-5.9-6-9-9.2c5.1-7.5,11.6-12.6,20.7-13.5c1.1-0.1,2.7,0.8,3.5,1.8c1.3,1.7,2,3.9,3.1,5.8c1.3,2,2.1,4.7,5.4,4.3
		L224.6,356.1z"/>
	<path fill="#60958F" d="M174.5,150c1.4,2.3,1.4,4.8,0.9,7.3c-1.9,8.7-2.2,17.5-1.7,26.3c0.1,1.7,0.4,3.4,0.6,5.1
		c0.1,0.9-0.3,1.6-1,2.1c-0.8,0.4-1,1.2-1.5,1.8l0.1-0.1c-1.3,0.9-2.7,1.8-3.1,3.5c-0.7,2.4,1.2,3.5,2.6,4.5
		c2.2,1.5,4.1,3.3,5.9,5.2c4,4-0.1,6.6-1.7,9.6l0,0c-4.4,5.4-7,11.7-9.1,18.3c-0.5,1.5-0.5,3.1-1.5,4.3c-0.6,4.2-1.3,8.3-1.7,12.5
		c-0.2,1.7,0,3.5-0.3,5.2c-2.1-7.3-4-14.6-4.8-22.3c-1.1-10.6-0.4-21.1,1.1-31.5c1.1-7.6,2-15.3,3.1-22.9c0.1-1.1,0.6-2.1,0.9-3.4
		c1.4,0.7,2.6,1.2,4.3,2c3.7-6,3.5-12.5,4.2-20c-2.5,1.2-4.1,2-5.7,2.8c-0.3,0.2-0.6,0.2-1,0c0-0.4-0.1-0.7-0.1-1.1
		c1.8-3,3.7-6,5.7-9.3C171.8,150,173.2,150,174.5,150z"/>
	<path fill="#F5F8F6" d="M161.5,173.4c-1.6,9.2-3.1,18.6-5,28c-0.6,2.8-1.9,5.7-3.5,8.1c-2.3,3.4-5.5,3.3-7.3-0.3
		c-1.4-2.9-2.2-6.3-2.4-9.5c-0.5-8.2,0.2-16.4,2-24.4c1.3-6,7.5-8.5,12.5-5C158.9,171.1,159.9,172.1,161.5,173.4z"/>
	<path fill="#ED1C26" d="M143.7,223.4c2.9-0.3,5.7-0.7,8.5-1c3.1-0.3,4.1,0.3,4.3,3.5c0.2,4.7,0,9.5,0,14.6
		c-1.9,2.4-4.6,1.1-7.1,0.4c-2.4-0.7-4.6-1.9-5.7-4.5C142,232.4,141.9,227.3,143.7,223.4z"/>
	<path fill="#60958F" d="M140.3,244.9c-1.6-9.5-3.2-19.1-4.9-28.6c-0.9-5.6-1.1-11.2,0.3-16.8c0.5-1.9,1.3-3.5,3.7-3.8
		c0.7,16.9,1.4,33.7,2.1,50.6c-0.5,0-0.6,0-0.8-0.1c-0.1-0.1-0.2-0.2-0.2-0.3C140.5,245.6,140.4,245.2,140.3,244.9z"/>
	<path fill="#F0F1F0" d="M155.7,211.6c0,2.8,0,5.7,0,9c-4,0.2-7.9,0.4-12,0.7c-1.7-4.4-2.5-8.7-0.9-13.3c0.5,1,1,2,1.5,3
		c2,4,4.8,4.7,8.5,2.2c0.9-0.6,2-1,3-1.4C155.8,211.7,155.7,211.6,155.7,211.6z"/>
	<path fill="#60958F" d="M139.2,191.8c-4.2-3.1-4.3-3.2-2.6-7.1c1.5-3.4,3.1-6.7,4.7-10c0.2-0.5,0.8-0.8,1.6-1
		C141.3,179.6,143,186.2,139.2,191.8z"/>
	<path fill="#CC2027" d="M208,324.9c0.6,0.6,1.3,1.2,1.9,1.9c0,0.8,0,1.5,0,2.3c-4.7-1-7.7-4.2-7.3-8.7c0.3-4.5,1.4-8.9,2.3-13.4
		c0.1-0.3,0.6-0.6,1.5-1.5c-0.3,3.6-0.5,6.5-0.7,9.5c-0.2,2.2-0.5,4.4-0.6,6.5C205,323.5,205.7,325,208,324.9z"/>
	<path fill="#878987" d="M187.9,361.5c0.1,4-0.7,5-4,5.2c-0.5,0-0.9,0-1.4,0c-1.4,0-2.8,0-4.6,0c-0.4-1.4-0.8-2.9-1.4-4.7
		C180.5,361.9,184.2,361.7,187.9,361.5z"/>
	<path fill="#4B504C" d="M146.2,368.6c-7.6,1.4-15.3,1-23,1c-1.6,0-3.2-0.1-4.7-0.2c-0.3-0.4-0.3-0.8-0.1-1.2
		c3.5-0.2,6.9-0.4,10.4-0.4c5.8-0.1,11.7,0,17.5,0c0.3,0.2,0.4,0.4,0.3,0.6C146.4,368.5,146.3,368.6,146.2,368.6z"/>
	<path fill="#0C0F15" d="M165.1,238c0.5-8.2,4.6-15.1,8.6-21.9c0.3-0.5,1.3-0.5,1.9-0.7c-0.2,0.7-0.3,1.5-0.6,2.1
		c-4.3,6.7-7.4,13.9-9,21.7c-0.3,0.4-0.5,0.4-0.7,0C165.2,238.8,165.1,238.4,165.1,238z"/>
	<path fill="#878987" d="M146.2,368.6c-0.1-0.3-0.1-0.6,0-0.8c9,0,17.5-2.6,25.8-5.7C164.3,367.7,155.4,368.8,146.2,368.6z"/>
	<path fill="#878987" d="M207.6,375.7c-8.1-3.2-13.9-8.2-15.5-13.3c0.3-0.1,0.7-0.3,0.7-0.2c3.1,5,8.3,7.6,12.8,11
		c0.9,0.6,1.7,1.4,2.5,2.1C208.2,375.7,208,375.8,207.6,375.7z"/>
	<path fill="#F5F8F6" d="M163.3,154.6c0.8,0,1.5-0.1,2.7-0.2c-0.8,1.7-1.6,3.3-2.3,4.8c-0.2,0.3-0.3,0.6-0.5,0.8
		c-0.9,0.7-2.1,2.2-2.6,1.9c-1.1-0.5-2.2-1.7-2.5-2.8c-0.2-0.7,1-1.8,1.6-2.6c0.2-0.4,0.5-0.8,1-1l-0.1,0c0.7-1,2.1-0.2,2.9-1
		C163.4,154.6,163.3,154.6,163.3,154.6z"/>
	<path fill="#878987" d="M223.2,389.6c5,0.9,9.9,1.8,15-0.2C234.2,393.8,227.5,393.7,223.2,389.6L223.2,389.6z"/>
	<path fill="#CC2027" d="M211.8,333.5c2.1-0.1,2.6,1.4,2.7,3c0.1,1.3,0,2.7,0,4.8C211.2,338.8,212.2,335.9,211.8,333.5L211.8,333.5z
		"/>
	<path fill="#02509B" d="M149.1,156.4c0.7,1,1.3,2,2.3,3.4c-3.2,0.7-4.8-1-6.8-2.5C146.1,157,147.6,156.7,149.1,156.4L149.1,156.4z"
		/>
	<path fill="#1D1918" d="M165.2,239.2c0.2,0,0.5,0,0.7,0c0.1,0.4,0.2,0.9,0.4,1.3c1.3-0.7,2.5-1.6,3.8-2c0.3-0.1,1.1,1.4,1.7,2.2
		c-1.2,0.7-2.5,1.3-2.9,2.8c-0.2,0.4-0.5,0.7-0.9,0.9c-0.9-0.4-1.8-0.7-2.7-1.1C165.3,241.9,165.2,240.5,165.2,239.2z"/>
	<path fill="#878987" d="M118.3,368.2c0,0.4,0.1,0.8,0.1,1.2c-3.8,0.3-3.8,0.3-6.7-1.5c1.6,0,2.7,0,3.9,0c0.4,0.2,0.8,0.2,1.2,0.3
		C117.3,368.2,117.8,368.2,118.3,368.2z"/>
	<path fill="#28388F" d="M155.6,351.6c-0.5-1.1-1-2.3-1.5-3.4c0.4-0.1,0.7-0.2,1.1-0.3c0.2,1.2,0.4,2.4,0.6,3.5L155.6,351.6z"/>
	<path fill="#111319" d="M218.5,362c-0.8,1.1-1.7,1.3-2.7,0.2c0.6-0.4,1.1-0.7,1.7-1.1C217.9,361.4,218.2,361.7,218.5,362z"/>
	<path fill="#D5D7D4" d="M154.8,159.3c-0.6,0.4-1,0.6-1.3,0.9c-0.2-0.3-0.6-0.7-0.5-0.9c0.1-0.3,0.5-0.7,0.9-0.7
		C154,158.4,154.4,158.9,154.8,159.3z"/>
	<path fill="#878987" d="M211.6,381.2c-0.8-0.4-1.6-0.8-2.4-1.2c0.4-0.4,0.8-0.8,1.2-1.3c0.6,0.6,1.1,1.2,1.7,1.8
		C212.2,381,212.1,381.2,211.6,381.2z"/>
	<path fill="#878987" d="M208.2,375.2c0.4,0.8,0.8,1.7,1.2,2.5c-0.2,0.1-0.5,0.2-0.7,0.4c-0.4-0.8-0.7-1.6-1.1-2.4
		C207.8,375.5,208,375.3,208.2,375.2z"/>
	<path fill="#4B504C" d="M220.6,388.8c-0.4-0.3-0.7-0.6-1.1-0.9c0.4-0.1,0.8-0.3,1.1-0.3c0.2,0,0.3,0.5,0.4,0.7
		C220.9,388.4,220.7,388.6,220.6,388.8z"/>
	<path fill="#878987" d="M216.8,386.7c-0.4-0.5-0.7-0.9-1.1-1.4c0.1-0.2,0.2-0.3,0.3-0.5c0.5,0.3,1,0.6,1.5,0.8
		C217.3,386,217.1,386.3,216.8,386.7z"/>
	<path fill="#878987" d="M212.6,382.2c-0.3-0.3-0.6-0.6-1-1c0.2-0.2,0.4-0.4,0.6-0.6c0.3,0.3,0.6,0.6,1,1
		C213.1,381.9,213,382.1,212.6,382.2z"/>
	<path fill="#878987" d="M213.2,381.6c0.3,0.3,0.6,0.6,1,1L214,383c0,0-0.5,0.1-0.5,0.1c-0.3-0.3-0.6-0.6-1-1
		C212.8,382,213,381.8,213.2,381.6z"/>
	<path fill="#878987" d="M214.1,382.5c0.1,0.4,0.2,0.8,0.3,1.2c-0.3-0.2-0.6-0.4-0.9-0.7C213.7,382.9,213.9,382.7,214.1,382.5z"/>
	<path fill="#4B504C" d="M116.8,368.2c-0.4-0.1-0.8-0.2-1.2-0.3C116,368,116.4,368.1,116.8,368.2z"/>
	<path fill="#878987" d="M223.3,389.5c-0.2-0.1-0.3-0.2-0.5-0.3c0.1,0,0.2,0,0.2,0.1C223.1,389.4,223.2,389.5,223.3,389.5
		C223.2,389.6,223.3,389.5,223.3,389.5z"/>
	<path fill="#F0F1F0" d="M155.8,211.7c0-0.2-0.1-0.4-0.1-0.6c0.2,0,0.4,0.1,0.5,0.1c-0.2,0.2-0.4,0.3-0.6,0.5L155.8,211.7z"/>
	<path fill="#181515" d="M165.2,160.3c0.3,0,0.6,0,1,0C165.8,160.4,165.5,160.4,165.2,160.3z"/>
	<path fill="#24201D" d="M160.5,155.5c-0.3,0.3-0.7,0.7-1,1c0-0.3,0-0.7-0.1-1C159.8,155.5,160.2,155.5,160.5,155.5z"/>
	<path fill="#CC2027" d="M211.9,333.4c-0.1-0.1-0.3-0.1-0.4-0.2c-0.1,0,0-0.2,0-0.3C211.5,333.1,211.7,333.3,211.9,333.4
		L211.9,333.4z"/>
	<path fill="#0E0E11" d="M173.6,302.1c-0.8-1-1.6-1.9-2.2-3c-3.4-6.2-6.8-12.4-10.1-18.7c-1.8-3.5-3.5-7-5.1-10.6
		c-0.5-1.1-0.5-2.4,0.2-3.8c5.7,11.2,11.4,22.4,17.1,33.6c0.3,0.7,0.4,1.5,0.5,2.3L173.6,302.1z"/>
	<path fill="#F2C28E" d="M79.4,159.3c1.7-4.2,4.8-5.8,9.3-5.7c2,0,4-1.5,6.1-2.1c0.8-0.3,1.8,0,2.9,0c-0.5,3.7-3.4,4.2-5.4,5.5
		c-4.3,2.7-4.2,2.5-3.4,7.7c0.7,4.5,1.5,9,0.1,13.5c0.4,0.6,0.4,1.2-0.2,1.7c-2.3,1.3-4,0.8-5.8-1.2c-5.3-6.1-11.8-8.4-19.9-6.5
		c-3.6,0.8-7.5,0.3-11.3,0.3c-2.8-1-5.6-2-8.3-3c-2.5-1-3.6-2.9-3.4-5.6c2.6-1.2,5,0.2,7.4,0.8c2.8,0.8,5.6,1.9,8.5,2.5
		c1.4,0.3,2.9-0.3,4.4-0.6c4.5-3.5,8.4-8.2,14.9-8.1c1.1,0.4,2,1.2,2.8,2c1.7,2,3.6,3.8,4.7,6C82.7,163.9,78.1,163,79.4,159.3z"/>
	<path fill="#F0F1F0" d="M88.9,179.9c0.1-0.6,0.1-1.2,0.2-1.7c0.7-0.5,1.9-0.9,2.1-1.6c0.8-2.5,2.7-2.2,4.5-2.2
		c0.2,0.3,0.5,0.4,0.8,0.4c0.3,0.3,0.7,0.5,1,0.8c1.6,2.2,0.5,4.4,0.2,6.6c-1.9,3-3.8,6.1-5.9,9.4c-1.2-0.9-2-1.5-2.8-2.1
		c0.3-0.3,0.4-0.7,0.3-1.1c1-2.1,1.7-4.2-1-5.6c-0.5-0.5-0.8-1-0.4-1.7C88.3,180.6,88.6,180.2,88.9,179.9z"/>
	<path fill="#D5D7D4" d="M90,188c-0.4,0.5-0.7,0.9-1.1,1.4c-1.6-1-3.2-2-5.2-3.3c1.5-1.9,2.8-3.5,4.1-5.2c0.4,0.4,0.8,0.8,1.2,1.3
		C89.8,184.1,89,186.2,90,188z"/>
	<path fill="#02509B" d="M90.3,193.2c-1,1-1.7,1.6-2.4,2.2C87.7,193.8,87.8,192.6,90.3,193.2z"/>
	<path fill="#080707" d="M60.5,153.8c0,0.5,0,0.9,0,1.4c-1.1,1.3-2.4,1.3-3.7,0.3c-0.3-0.3-0.7-0.6-1-0.9
		C57.4,154.4,58.9,154.1,60.5,153.8z"/>
	<path fill="#24201D" d="M59.6,150.6c1.6-0.3,3.3-0.5,4.9-0.8C62.8,150.1,61.2,150.4,59.6,150.6z"/>
	<path fill="#24201D" d="M47.2,152.5c1.1-0.2,2.1-0.4,3.2-0.6C49.3,152.1,48.3,152.3,47.2,152.5z"/>
	<path fill="#3F3A36" d="M89,146.7c0.7,0,1.3,0,2,0C90.3,146.7,89.7,146.7,89,146.7z"/>
	<path fill="#F2C28E" d="M69.1,157.2c2.9-0.6,5.8-1.3,9.1-2c0,1.7,0,2.7,0,3.7c0.3,0.3,0.4,0.5,0.2,0.7c-0.1,0.2-0.3,0.2-0.4,0.2
		c-0.7,0.2-1.3,0-1.9-0.5c-2.9-0.9-5.4,0-7.8,1.7c-2.6,1.7-4.7,4.2-8,4.7c-4.5,0.6-8.2-2.1-12.3-3.3c2.9-1.5,6-0.4,8.9-1.1
		c2.8-0.6,5.5-1.9,8.3-2.9C66.3,157.2,67.5,156.5,69.1,157.2z"/>
	<path fill="#F0F1F0" d="M56.8,155.5c1.2-0.1,2.4-0.2,3.7-0.3c1.3-0.2,2.6-0.3,3.8-0.5c0.8,0.4,2.3,0,2.1,1.7
		c-0.3,0.3-0.7,0.4-1.1,0.2c-5.3,1.4-10.5,3.4-16.2,2.5c-0.3-0.2-0.4-0.3-0.3-0.5c0.1-0.2,0.2-0.3,0.3-0.3
		C51.7,157.5,54.3,156.5,56.8,155.5z"/>
	<path fill="#24201D" d="M60.4,165.6c2.6-1.9,5.2-3.9,7.8-5.8c2.7-1.9,5.7-2.3,8.7-0.6c-0.5,0.5-1.1,0.6-1.7,0.2
		c-2.7,0.1-5,1.3-7.1,2.8c-2.4,1.7-5,3-7.5,4.5C60.5,166.3,60.4,165.9,60.4,165.6z"/>
	<path fill="#1D1918" d="M65.3,156.7c0.3-0.1,0.6-0.3,0.9-0.4c0.6-0.4,1.2-0.4,1.7,0.1c0.4,0.3,0.8,0.6,1.1,0.8
		c-1.3,0.4-2.5,0.7-3.8,1.1C65.3,157.7,65.3,157.2,65.3,156.7z"/>
	<path fill="#D5D7D4" d="M43.3,160.3c1.3-0.3,2.6-0.7,3.9-1C46,159.6,44.6,159.9,43.3,160.3z"/>
	<path fill="#D5D7D4" d="M49.1,158.4c0,0.3,0,0.5,0,0.8c-0.7,0-1.3,0.1-2,0.1C47.8,159,48.5,158.7,49.1,158.4z"/>
	<path fill="#0C0F15" d="M210.7,209.9c-1.7-0.2-3.4-0.4-5.3-0.6c-0.6,5-2.3,9.8-6,13.8l-0.1-0.1c0.7-2.2,1.3-4.5,2.1-6.7
		c0.6-1.8,1.3-3.5,1.7-4.5c-2.4-4.2-4.4-7.9-6.6-11.5c-1.7-2.8-3.8-5.4-5.6-8.1c-1.5-2.4-2.9-4.8-4.2-7.4c-0.3-0.7,0.2-1.8,0.4-3.6
		c4.9,7.8,9.2,14.6,13.9,22c2.2-0.3,4.6-0.9,7-0.8c2.4,0.1,4.9,0.5,6.9,3.2c-4.5-0.2-8.5-1.9-12.8,0.7c3.3,1.2,6.1,2.2,9,3.2
		C211,209.6,210.9,209.7,210.7,209.9z"/>
	<path fill="#131212" d="M169.4,248.7c3.5,0.4,4.4,2.5,5.1,4.6c0.6,1.8,0,3.6-1.7,4.4c-1,0.5-2.7,0.7-3.5,0.2
		c-1.4-0.9-2.4-2.4-1.6-4.4C168.3,251.9,168.8,250.3,169.4,248.7z"/>
	<path fill="#0E0E11" d="M176.6,205.9c-2.8-2.2-5.6-4.4-8.3-6.7c-1.2-1-2.4-2.4-0.2-3.7c0.5-0.6,1-0.6,1.6,0
		c-0.2,2.2,1.4,3.4,2.8,4.6c1.8,1.5,3.4,3.2,5.1,4.8C177.9,205.9,177.5,206.1,176.6,205.9z"/>
	<path fill="#0C0F15" d="M176.6,205.9c0.3-0.3,0.7-0.7,1-1c4.3,4.6,4.1,5.8-2,10.5c0.8-1.8,1.6-3.7,2.7-6.2
		C178,208.6,177.3,207.2,176.6,205.9z"/>
	<path fill="#111319" d="M183.4,156.4c0.4,0.4,0.7,0.9,1.1,1.3c-0.7,2-1.4,4-2.3,6.7C180.4,160.8,183.4,158.9,183.4,156.4z"/>
	<path fill="#EBE720" d="M168,243.1c0.1-3.3,0.3-3.5,3.7-2.5c0,0.3,0.1,0.6,0.1,1c-0.3,0.9-0.7,1.7-1.8,1.9
		C169.3,243.7,168.6,243.6,168,243.1z"/>
	<path fill="#181515" d="M172.8,190.7c0.5-0.7,1-1.4,1.5-2.1c0.5,0,1,0.1,1.5,0.1c-0.2,1.8-1,2.9-3,3c-0.3-0.2-0.4-0.4-0.3-0.7
		C172.6,190.9,172.7,190.7,172.8,190.7z"/>
	<path fill="#17171B" d="M169.7,195.5c-0.5,0-1,0-1.6,0c0.8-1.5,1.5-3.2,3.7-2.9C171.2,193.5,170.4,194.5,169.7,195.5z"/>
	<path fill="#24201D" d="M168,243.1c0.6,0.1,1.3,0.1,1.9,0.2c0.3,0.2,0.4,0.4,0.3,0.6c-0.1,0.2-0.2,0.3-0.3,0.3c-0.7,0-1.4,0-2.1,0
		C168,243.9,168,243.5,168,243.1z"/>
	<path fill="#080707" d="M170,244.2c0-0.3,0-0.6-0.1-0.9c0.6-0.6,1.3-1.2,1.9-1.8C172,243,171.6,244,170,244.2z"/>
	<path fill="#111319" d="M194.5,232.6c-0.3,0-0.5,0-0.8-0.1c0.4-0.7,0.7-1.3,1.1-2l0.1,0C194.7,231.2,194.6,231.9,194.5,232.6z"/>
	<path fill="#0C0F15" d="M211.1,209.4c0.6,0.4,1.2,0.7,1.8,1.1c-0.1,0.1-0.3,0.2-0.4,0.4c-0.6-0.3-1.2-0.7-1.8-1
		C210.9,209.7,211,209.6,211.1,209.4z"/>
	<path fill="#17171B" d="M172.8,190.7c0,0.3,0,0.7,0,1c-0.3,0.3-0.7,0.6-1,0.8C172.2,192,172.5,191.4,172.8,190.7z"/>
	<path fill="#0C0F15" d="M213.7,211.6c0.2,0.1,0.4,0.2,0.6,0.3C214.2,211.9,214,211.7,213.7,211.6L213.7,211.6z"/>
	<path fill="#0C0F15" d="M199.5,223.1c-0.1,0.2-0.3,0.4-0.4,0.7c-0.1-0.1-0.2-0.3-0.4-0.4c0.2-0.1,0.4-0.3,0.6-0.4L199.5,223.1z"/>
	<path fill="#0C0F15" d="M212.9,210.5c0.3,0.4,0.5,0.7,0.8,1.1l0.1-0.1c-0.4-0.2-0.8-0.5-1.2-0.7
		C212.7,210.8,212.8,210.7,212.9,210.5z"/>
	<polygon fill="#17171B" points="197.9,225.3 198.1,225.2 198.1,225.5 	"/>
	<polygon fill="#28388F" points="196.2,228.1 196.3,228.4 196,228.3 	"/>
	<path fill="#28388F" d="M194.8,230.5c0.2-0.1,0.3-0.3,0.5-0.4C195.1,230.2,195,230.4,194.8,230.5L194.8,230.5z"/>
	<path fill="#F6C691" d="M198.9,273.8c3.4,6,10.8,5.9,13.4,11.3c-0.2,0.4-0.4,0.7-0.5,1.1c-1.6-0.4-3.3-0.5-4.7-1.2
		c-2.5-1.3-4.7-3.2-7.1-4.6c-6.6-3.8-8.7-10.4-10.7-17.1c-0.5-1.5,0.1-3.4,0.5-5.1c0.9-4.1,2-8.2,3.2-12.8c4.9,2.9,9.5,5.3,13.8,8.1
		c2.3,1.5,1.6,4.2,1.7,6.6c0.2,5.2,3.1,7.9,8.5,7.7c0.6,0,1.3,0,1.9,0c2.2-0.2,4,0.6,5.6,3.2c-1.2,0.6-2.3,1.6-3.4,1.7
		c-2.7,0.1-5.3-0.3-8-0.5c-1.8-0.1-3.6-0.3-6.1-0.5c2,3,4.6,2.7,6.7,3.1c5.1,1.1,5.8,1.8,6.5,7.1c-2.2,0.9-4.3,0.6-6.3-0.5
		c-3-1.7-6-3.3-9.1-4.9C203.1,275.5,201.4,274.8,198.9,273.8z"/>
	<path fill="#F0F1F0" d="M196.2,239.7c4.2,2,8.7,3.6,9.2,9.9c-4-1-6.8-3.4-9.7-5.5C193.7,242.7,194.7,241.1,196.2,239.7z"/>
	<path fill="#D5D7D4" d="M211.1,247.4c-1.5,2.8-1.5,2.8-4.6,3.3C208.2,249.4,209.3,248.7,211.1,247.4z"/>
	<path fill="#EBE720" d="M206.6,247.2c0.2-0.4,0.4-0.6,0.5-0.8c0.3,0.2,0.6,0.4,0.8,0.6c0.1,0.1-0.2,0.6-0.3,0.6
		C207.2,247.6,206.9,247.4,206.6,247.2z"/>
	<path fill="#04519D" d="M234.8,348.6c0.3,0.5,0.5,1,0.8,1.5c-0.2,0.1-0.4,0.2-0.6,0.2c-0.1-0.5-0.3-1-0.4-1.5
		C234.5,348.8,234.8,348.6,234.8,348.6z"/>
	<path fill="#E2D9A7" d="M44.7,129.5c-0.6,2.1-1.2,3.9-1.8,5.8c-0.3-3.1,0.7-6.5-3.6-8.1c3.6-0.4,7.4,0.7,9.7-2.7
		c1.9-2.8,3.6-5.8,5.3-8.7C57.7,121.1,53.2,127.6,44.7,129.5z"/>
	<path fill="#E2D9A7" d="M36.8,114.8c2.2,0.2,4.3,0.5,6.5,0.6c2.2,0.1,4.3,0,6.5,0.9c-3.9,0-7.7,0-11.4,0c-2.2,3.9-2.1,4.5,0.4,10
		c-0.7,0.3-1.5,0.6-2.2,0.9c0,0-0.1-0.1-0.1-0.1c-0.3-1.2-0.6-2.4-0.8-3.7c-0.3-2-0.4-4-0.5-6c0-0.4,0.2-0.8,0.4-1.1
		c0.1-0.3,0.1-0.5,0.2-0.8C36.1,115.2,36.4,114.9,36.8,114.8z"/>
	<path fill="#E2D9A7" d="M35.8,143.8c0.8-0.2,1.5-0.4,2.3-0.5c1.2-0.4,2.4-0.7,3.5-1.1c0.3-0.5,0.5-0.5,0.8,0c1,1.2,2.1,2.4,3.5,4.2
		c-4.3,0.9-7.9-0.7-12.7-1.7C34.7,144.2,35.2,144,35.8,143.8z"/>
	<path fill="#878987" d="M42.3,142.2l-0.4-0.1l-0.4,0.1c0-1.4,0-2.7,0-4.1c0.3,0,0.5,0,0.8,0C42.3,139.4,42.3,140.8,42.3,142.2z"/>
	<path fill="#878987" d="M36.8,114.8c-0.3,0.2-0.6,0.5-0.9,0.7C36.2,115.3,36.5,115.1,36.8,114.8z"/>
	<path fill="#878987" d="M35.6,116.3c-0.1,0.4-0.3,0.8-0.4,1.1C35.4,117.1,35.5,116.7,35.6,116.3z"/>
	<path fill="#24201D" d="M79.4,159.3c0.7,1.3,1.4,2.7,2.3,3.9c1.5,2.1,3.1,4.1,2.6,7.1c-2.2-3.1-4.4-6.1-6.6-9.2
		c-0.1-0.8,0.5-1.5,0.4-2.2l0-0.1C78.6,159,79,159.1,79.4,159.3z"/>
	<path fill="#D5D7D4" d="M67.9,156.3c-0.6,0-1.2-0.1-1.7-0.1c-0.6-0.5-1.2-1-1.8-1.5c1.8-0.1,3.7-0.3,5.5-0.4c0,0.2,0.1,0.4,0.1,0.6
		C69.3,155.4,68.6,155.9,67.9,156.3z"/>
	<path fill="#F0F1F0" d="M80.5,153.6c-1.6,0.1-3.3,0.2-4.9,0.2c0-0.3,0-0.6-0.1-0.9c1.9-0.2,3.7-0.5,5.6-0.7
		C81.1,152.7,80.9,153.2,80.5,153.6z"/>
	<path fill="#878987" d="M90.5,151.9c-1.3,0.3-2.6,0.6-4,0.9c-0.1-0.4-0.2-0.9-0.3-1.3c1.3-0.3,2.6-0.7,3.9-1
		C90.3,150.9,90.4,151.4,90.5,151.9z"/>
	<path fill="#878987" d="M80.5,153.6c0.2-0.5,0.4-0.9,0.6-1.4l0,0c0.4,0,0.6,0.2,0.5,0.6C81.2,153,80.9,153.3,80.5,153.6z"/>
	<path fill="#878987" d="M81.1,152.2c0.3-0.1,0.7-0.2,1-0.2c-0.2,0.3-0.3,0.6-0.5,0.8C81.4,152.6,81.2,152.4,81.1,152.2z"/>
	<path fill="#ED9248" d="M74,133.1c0.3,0,0.6,0,0.9-0.1c2.7,1,2.5,3.6,3.3,5.7c0.3,0.8,0.6,1.5,0.9,2.2c0.1,0.4,0.2,0.8,0.2,1.2
		c-0.1,0.4-0.2,0.8-0.5,1.1c-1.2,3.4-4.8,0.8-6.6,2.7c-1.1-1.4-2.4-2.7-3.1-4.3c-0.6-1.3-0.6-3-0.7-4.5c0-0.2,1.2-0.5,1.8-0.8
		c0.5,0.2,1,0.5,1.4,0.9c0.3,0.3,0.5,0.6,0.6,0.9c0.2,0.3,0.3,0.7,0.5,1c0.4,0.9,0.5,1.8,0.9,2.7c0.3,0.2,0.4,0.5,0.2,0.7
		c0.1,0,0.1,0,0.1,0c0.2-0.5-0.4-0.7-0.5-1c-0.1-1.2-0.6-2.3-1.1-3.5c-0.3-0.6-0.5-1.2-0.5-1.9C72,134.7,72,133.2,74,133.1z"/>
	<path fill="#E2D9A7" d="M78.6,141.6l0.1-0.1c-0.5-0.6-0.5-1.5-0.9-2.2c-1-2.1-1.9-4.3-2.9-6.4c0.8-0.8,1.5-1.6,2.8-2.9
		c0.8,2.4,1.4,3.9,1.9,5.4c0.3,1.8,0.8,3.7,0.9,5.5c0.1,0.7-0.6,1.4-0.9,2.1C79.1,142.7,78.7,142.2,78.6,141.6z"/>
	<path fill="#E2D9A7" d="M70.7,137.3c-0.2-0.4-0.3-0.7-0.5-1.1c-0.9-1.5-1.9-3,0.7-3.7c0.3,0.1,0.6,0.1,0.9,0.2c1.2,1,0,2.6,0.9,3.7
		c0,0.5,0,0.9,0.1,1.4c0,0.7-0.3,0.9-0.9,0.4l0,0C71.6,137.9,71.1,137.6,70.7,137.3z"/>
	<path fill="#E2D9A7" d="M70.9,129.6c0.7,0.2,1.3,0.3,2,0.5c0,0,0,0.3,0,0.3c-0.6,0.4-1.3,0.8-1.9,1.2c-0.9-0.1-1.8-0.1-2.7-0.2
		c0.1-0.1,0.1-0.3,0.2-0.4C69.3,130.5,70.1,130.1,70.9,129.6z"/>
	<path fill="#3F3A36" d="M68.4,130.9c0,0.2,0,0.3-0.2,0.4c-0.4,0.3-0.8,0.7-1.1,1c-0.2-0.3-0.4-0.6-0.6-1
		C67.2,131.3,67.8,131.1,68.4,130.9z"/>
	<path fill="#E2D9A7" d="M67,133.8c0,0.8,0,1.6,0,2.3c-0.2,0-0.3,0-0.5,0c0-0.8,0-1.6,0-2.3C66.6,133.8,66.8,133.8,67,133.8z"/>
	<path fill="#1D1918" d="M78.6,141.6c0.3,0.5,0.6,1,1,1.5c-0.3,0-0.5,0-0.8,0C78.7,142.6,78.7,142.1,78.6,141.6z"/>
	<path fill="#4B504C" d="M72.8,136.4c-0.3-1.2-0.6-2.5-0.9-3.7c0.7,0.1,1.4,0.2,2.2,0.3C73.6,134.2,73.2,135.3,72.8,136.4z"/>
	<path fill="#F2C28E" d="M72.9,130.4l0-0.3c0.7-1.5,1.6-1.6,2.7-0.4C74.7,129.9,73.8,130.1,72.9,130.4z"/>
	<path fill="#24201D" d="M149.4,188.8c-3.1-1.8-3.9-4.5-2-7.1c0.9-1.3,2.9-0.9,3.9,0.6C152.6,184.4,152.1,186.1,149.4,188.8z"/>
	<path fill="#24201D" d="M149,179.9c0.2-2.7-1.1-5.5,2.1-7.2C152,175.9,151.6,177.2,149,179.9z"/>
	<path fill="#17171B" d="M148.7,197.6c-1.9-1.7-1.9-3.3,0-5C148.7,194.3,148.7,195.9,148.7,197.6z"/>
	<path fill="#CC2027" d="M149.2,231.8c0-2.3,0-4.6,0-7c0.2,0,0.3,0,0.5,0c0,2.4,0,4.8,0,7.2C149.5,231.9,149.3,231.8,149.2,231.8z"
		/>
	<path fill="#181515" d="M78.1,158.9c-0.1,0.7-0.3,1.5-0.4,2.2c-0.8-0.6-1.7-1.2-2.5-1.8c0.6-0.1,1.1-0.2,1.7-0.2
		C77.3,159.1,77.7,159,78.1,158.9z"/>
	<path fill="#131212" d="M90,188c-3-1.6-3.2-2.6-0.9-5.8c2.2,1,2.2,1,3.2,4C91.7,186.7,90.9,187.4,90,188z"/>
	<path fill="#EBE720" d="M171.1,250.7c0.5,1,1.4,2.1,1.5,3.2c0.1,0.8-1,1.6-1.6,2.4c-0.7-0.7-1.9-1.4-1.9-2.1
		c-0.1-1.1,0.6-2.3,1-3.5C170.5,250.7,170.8,250.7,171.1,250.7z"/>
	<path fill="#3F3A36" d="M72,138.3c0.3-0.1,0.6-0.3,0.9-0.4c0.3,1.4,0.7,2.8,1,4.2l-0.1,0.1C73.2,140.9,72.6,139.6,72,138.3z"/>
	<path fill="#080707" d="M73.8,142c0.3,0.5,0.7,1,1,1.5c-0.2,0.1-0.4,0.2-0.7,0.3c-0.2-0.6-0.3-1.2-0.5-1.7L73.8,142z"/>
	<path fill="#4B504C" d="M77.8,139.3c0.3,0.7,0.6,1.5,0.9,2.2C78.4,140.8,78.1,140.1,77.8,139.3z"/>
	<path fill="#3F3A36" d="M70.7,137.3c0.4,0.3,0.9,0.7,1.3,1C71.6,138,71.1,137.6,70.7,137.3z"/>
	<path fill="#EBE720" d="M149.6,183.5c0,1,0,1.9,0,2.9c-0.1,0-0.2,0-0.4,0c0-1-0.1-1.9-0.1-2.9C149.2,183.5,149.4,183.5,149.6,183.5
		z"/>
	<path fill="#3F3A36" d="M89.9,184.2c0,0.8,0,1.5,0,2.3c-0.2,0-0.4,0-0.6,0c0-0.8,0-1.5,0-2.3C89.5,184.2,89.7,184.2,89.9,184.2z"/>
	<g>
		<path fill="#FBAA1B" d="M123.5,79.8c0,0,1.8,7,2.1,9.3c0.3,2.3-4.7,7.5-4.7,10.1s1,7.3,6.7,9.6c5.7,2.3,6.5,8.3,6.5,11.9
			c0,3.6-2.1,10.6-2.1,10.6s-1.3,17.4,5.7,20.5c7,3.1,5.4,3.1,7,3.1c1.6,0,13,4.7,19.7,2.9c6.7-1.8,8.6-3.9,8.6-3.9s6.7,0.5,8.8-5.5
			c2.1-6,3.4-18.4,2.6-24.1c-0.8-5.7-1.8-13.2,2.9-15.8c4.7-2.6,9.6-5.7,8.8-8.3c-0.8-2.6-4.9-6.2-4.9-6.2s-1-6.5-0.3-8
			c0.8-1.6,5.4-5.5,2.9-8.3c-2.6-2.9-7.3-2.9-7.3-2.9l-6,0.5c0,0-10.1-9.1-23.4-8.6c-13.2,0.5-21.5,8.6-21.5,8.6s-4.4-1.6-8.3,0
			C123.5,77,122.7,75.4,123.5,79.8z"/>
		<path fill="#E78825" d="M147.2,118.5c0,0-5.1,7.9-8.9,13.4c-0.6,0.9,3.8,0.9,3.8,0.9L147.2,118.5z"/>
		<path fill="#E78825" d="M149.7,102.2c0,0-1.5,3.9-2.4,5.9c-0.9,2.2-4.4,3.3-4.4,3.3s1.8-1.9,1.8-6.7c0-2,2.6-2.8,2.6-2.8
			L149.7,102.2z"/>
		<path fill="#E78825" d="M148.1,104.4c0,0-3.2,3.8-9.1,1.7c-5.9-2.1-6.5-9.7-6.5-11.8s11.2,2.1,12.7,3
			C146.7,98.2,149.6,101.8,148.1,104.4z"/>
		<path fill="#E78825" d="M125.8,64c0,0,5.4-1.1,9.1,1.8c3.6,2.9,4.7,5.1,4.7,5.1l-6.1,4.8c0,0-3-1.4-3.9-5.3
			C128.7,66.6,129.3,64.8,125.8,64z"/>
		<path fill="#E78825" d="M146.5,93.5c-2.3-3.3-6.2-4.8-9.3-5c-5.3-0.4-7.7,1.4-7.7,1.4s8.6,0.4,11.1,3.6c4.6,6.1,11.4,6.6,12.4,5.2
			c-1.2,0.1-2.6-0.6-4.1-1.9C148,95.9,147.3,94.5,146.5,93.5z"/>
		<path fill="#E78825" d="M132,105.2c0,0-9.5-3.3-7.7-6.6c1.8-3.3,0.4-5.1,0.4-5.1s-5.3,4-4,8.2c0.8,2.6,2.2,4.5,9.9,8.1
			c3.7,6.9,0.8,19.2,0.9,19.2c0.3,0.1,5.2-2.4,4.8-14C136.3,111.5,136,106.7,132,105.2z"/>
		<path fill="#E78825" d="M144.5,69.9c-4,2-9.5,4.9-9.5,4.9l2.2,1.1c-0.2,0.3-0.3,0.5-0.3,0.5l2.2,1c0,0,5.4,3.9,8.7,6.4
			c-1.1-3.4-4.3-8.7-4.3-8.7S142.5,72.6,144.5,69.9z"/>
		<path fill="#E78825" d="M157.8,152.8c-12.3,0-16.5-6.2-16.5-6.2l1.9,4.7c0.7,2,8.5,8.3,14.5,8.3"/>
		<path fill="#E78825" d="M142.7,142.4c0,0,1.1,6.9,5.7,6.9c3.9,0,5-5.8,5-7.1L142.7,142.4z"/>
		<path fill="#E78825" d="M135.1,131.9c0.4-1.1,1.8-5.6,2.3-9.7c0.5-4.9,0.3-12,0.3-12s-1.2,4.7-2.3,5.4c-1.1,0.8-3,5.9-3,5.9
			s-1.1,7.6-1.6,10.2C132.3,132,133.5,131.2,135.1,131.9z"/>
		<path fill="#E78825" d="M124.2,101.6c0,0,2.6-0.9,3.3-6.5c0.8-5.6-0.9-10.4-0.9-10.4s0.2,7.7-0.8,9.2c-0.9,1.5-1.7,2-2.7,3.9
			C122.1,99.8,123.6,101,124.2,101.6z"/>
		<path fill="#88CCED" d="M137.8,75.9"/>
		<path fill="#FDC169" d="M127.3,65.3l-0.5-0.3C125.2,65,127.3,65.3,127.3,65.3z"/>
		<path fill="#FBAA1B" d="M146.6,68.3c0,0-2.4-0.4-3.6-2.2c-1.2-1.8-4.6-5.4-10.1-5.5c-5.5,0-10.9,1.5-10.9,1.5l4.7,3
			c0.5,0,1.4,0,2.8,0c5.9,0.2,6.8,6,6.8,6l20.9-2.9"/>
		<path fill="#FFFFFF" d="M148.6,100.6c0,0-2.8,2.8-7.2,1.9c-4.3-0.9-7-2.8-7.2-6.1c-0.2-3.3,0.9-4.6,0.9-4.6s4.8,1.5,7.2,3.5
			C144.7,97.3,146.4,100.5,148.6,100.6z"/>
		<path fill="#C9C9C9" d="M145.2,99.6c0,0-2.4,1.1-5.2,0.2c-3.6-1.2-3.8-4.9-3.8-4.9s-2.2,6.4,4,7.7c4.9,1,7.9-1.9,7.9-1.9
			L145.2,99.6z"/>
		<path fill="#463117" d="M148,135.7"/>
		<path fill="#463117" d="M146.9,66.9c-0.3-5.5,4.3-9.9,5.8-10.1c0.1,0.9-0.1,4.6,1.5,5.7c0.5-3,2-6.3,8.1-8.4
			c-1.3,3.5-0.2,6.4,0.4,7.7c4.2-3.8,7-3.2,7-3.2s-2.9,5-1.8,8.3C159.6,66.2,147,67.8,146.9,66.9z"/>
		<path fill="#463117" d="M129.2,75.3c-2-1.7-0.5-3.2-0.7-5.1c-0.1-1-0.2-1.9-0.5-2.5c-1.8-2.9-6.2-3.8-6.2-3.8l-2-0.4l1.3-1.6
			c0.2-0.2,5.7-5.5,14.3-2.7c6,1.9,10.4,8.5,10.6,8.7l-3,1.4c0-0.1-3.5-6.2-8.7-7.9c-4.1-1.3-8-0.1-9.6,0.8c1.7,0.7,4,2,5.4,4.1
			c0.6,1,0.8,2.3,0.9,3.6c0.1,1.7,0.3,3.2,1.5,4.2L129.2,75.3z"/>
		<path fill="#463117" d="M123.9,99.5c0,0,2.5-3.1,3.3-9.2c0.3-2.4-0.2-7.1-1.1-8.9c0.2,4.5-1,8.9-1,8.9S124.3,98.6,123.9,99.5z"/>
		<path fill="#463117" d="M137.1,72.2c0,0-0.8-3.5-3-5.3c-3.2-2.5-7-1.2-7-1.2l-0.6-1.7c0.2-0.1,4.6-1.4,8.6,1.4
			c4.1,2.9,4.6,5.5,4.6,5.7L137.1,72.2z"/>
		<path fill="#463117" d="M131.8,97.2c0,0-1.3-1.9-1.1-4c0.1-1,0.6-2.1,1.4-2.5c1.6-0.7,2.3,1.1,2.3,1.1S132.2,92.5,131.8,97.2z"/>
		<path fill="#463117" d="M148,135.7"/>
		<path fill="#463117" d="M146.3,100.1c0.1,0.1,0.1,0.2,0.1,0.2s-4.1,3.1-8.3,0c-2.3-1.7-2-5.8-1.4-7.6c1.8,0.4,3.3,1.1,4.6,2
			c-1.6-1.4-3-2.5-3-2.5l-1.8-0.5l-3.6-1.2c0,0.3-1.3,6.4,2.4,10.5c1.7,1.8,9.4,6,13.1-1.1L146.3,100.1z"/>
		<path fill="#463117" d="M145.9,100.6c2.3,3.5,8.2,1.5,8.1-2.2c0,0-3.9,2.2-7.4-1.8c-2-2.3-8.5-8.7-17.2-6.6
			C135.4,91.3,143.4,96.8,145.9,100.6z"/>
		<g>
			<path fill="#463117" d="M148,135.7"/>
		</g>
		<path fill="#463117" d="M128.5,110.5c0.6,0.3,2.5,2.4,2.5,5.4c0,1.5-0.2,9.2-0.9,13.9c1.1,0.7,1.9,0.9,3.1,1.6
			c0.6-5.4,1-13.3,0.8-16.5c-0.2-3.6-2.2-6-4-7.1c-0.6-0.3-1.2-0.6-1.7-1c-3.1-1.7-6.3-3.4-6.3-6.3c0-2.3,0.9-3,1.8-3.8l0.1-0.1
			c0.6-0.5,1.3-1.1,1.8-2c1.1-2.6,1.3-9.2,0-10.8c-0.7-0.8-2.5-3.6-1.9-5.5c0.2-0.7,0.6-1.2,1.4-1.6c0.8-0.4,1.8-0.6,3.1-0.6
			c2.5,0,5.4,0.8,6.8,1.2c5.2,1.6,11.5,6.4,13.3,7.8c0.1,0,0.1,0.1,0.1,0.1l1.2,0.8l-0.7-1.2c0-0.1-4.6-7.6-12.8-10.3
			c-1.6-0.5-4.7-1.4-7.8-1.4c-1.8,0-3.4,0.3-4.6,0.9c-1.5,0.8-2.5,2-2.9,3.5c-1,3.8,2.3,8,2.4,8.1c0.4,0.7,0.6,5.8-0.3,7.8
			c-0.1,0.3-0.5,0.6-0.9,0.9c-0.1,0.1-0.3,0.2-0.4,0.3c-1.3,1-3.2,2.4-3.2,5.8c0,4.6,4.6,7.1,8.4,9.1
			C127.4,109.9,128,110.2,128.5,110.5z"/>
		<g>
			<g>
				<path fill="#463117" d="M129.2,75.3c-2-1.7-0.5-3.2-0.7-5.1c-0.1-1-0.2-1.9-0.5-2.5c-1.8-2.9-6.2-3.8-6.2-3.8l-2-0.4l1.3-1.6
					c0.2-0.2,5.7-5.5,14.3-2.7c6,1.9,10.4,8.5,10.6,8.7l-3,1.4c0-0.1-3.5-6.2-8.7-7.9c-4.1-1.3-8-0.1-9.6,0.8c1.7,0.7,4,2,5.4,4.1
					c0.6,1,0.8,2.3,0.9,3.6c0.1,1.7,0.3,3.2,1.5,4.2L129.2,75.3z"/>
			</g>
			<g>
				<path fill="#463117" d="M129.1,75.6l-0.1-0.1c-1.5-1.2-1.2-2.4-1-3.6c0.1-0.5,0.2-1.1,0.2-1.7c-0.1-1-0.2-1.9-0.4-2.3
					c-1.7-2.8-6-3.6-6-3.7l-2.5-0.5l1.7-2c0,0,3.6-3.6,9.6-3.6c1.6,0,3.3,0.3,5,0.8c6.2,2,10.7,8.8,10.7,8.9l0.2,0.3l-3.5,1.7
					l-0.1-0.2c-0.4-0.7-3.7-6.2-8.5-7.7c-1.2-0.4-2.4-0.6-3.7-0.6c-2.3,0-4.1,0.6-5.1,1c1.6,0.7,3.6,2,4.9,4
					c0.7,1.1,0.8,2.4,0.9,3.7c0.1,1.6,0.3,3.1,1.4,4l0.4,0.3L129.1,75.6z"/>
			</g>
		</g>
		<g>
			<g>
				<path fill="#463117" d="M137.1,72.2c0,0-0.8-3.5-3-5.3c-3.2-2.5-7-1.2-7-1.2l-0.6-1.7c0.2-0.1,4.6-1.4,8.6,1.4
					c4.1,2.9,4.6,5.5,4.6,5.7L137.1,72.2z"/>
			</g>
			<g>
				<path fill="#463117" d="M136.9,72.6l-0.1-0.3c0,0-0.8-3.4-2.9-5.1c-1.2-1-2.7-1.5-4.4-1.5c-1.3,0-2.3,0.3-2.4,0.3l-0.3,0.1
					l-0.7-2.3l0.3-0.1c0.1,0,1.3-0.4,2.9-0.4c2.2,0,4.2,0.6,6,1.8c4.2,2.9,4.7,5.7,4.7,6l0,0.2L136.9,72.6z M129.5,65
					c1.8,0,3.4,0.6,4.7,1.6c1.9,1.5,2.8,4.2,3.1,5.1l2.1-0.8c-0.2-0.7-1-2.9-4.4-5.3c-1.6-1.2-3.5-1.7-5.6-1.7c-1.1,0-2,0.2-2.5,0.3
					l0.4,1.1C127.7,65.2,128.5,65,129.5,65z"/>
			</g>
		</g>
		<path fill="#463117" d="M148.2,147.6L148.2,147.6c-0.9,0-1.8-0.3-2.4-0.9c-0.5-0.4-2.1-1.9-2.8-3.8c-0.3-0.7-0.2-1.2,0.2-1.6
			c0.3-0.3,0.8-0.6,2-0.6l0.8,0c1,0,2.6,0,4,0h1.3c0.9,0,1.5,0.2,1.8,0.5c0.5,0.5,0.3,1.1,0.2,1.4c-0.2,0.6-1.1,2.3-2.7,4
			C149.9,147.3,149.1,147.6,148.2,147.6z"/>
		<path fill="#463117" d="M149.1,100.8l-3.2-0.2c0,0,0.8,1.5,1.4,3.3c0.6,2.1-0.6,5.2-0.6,5.2S151,104.3,149.1,100.8z"/>
		<g>
			<path fill="#463117" d="M145.1,156.1c-11.5-0.9-15.5-11.7-15.5-14l3,0l-1.5,0h1.5c0,1,3.1,10.3,12.7,11L145.1,156.1z"/>
		</g>
		<path fill="#FFFFFF" d="M141.8,136.7c-0.2-1-0.2-2,0-3c-0.9-0.7-2.4-0.9-3.6-1.3c-1-0.6-5.9,0.6-9.4-3.7c-4.5-5.4-3.5-8.6-3.5-8.6
			c-1.1,1.3-2.3,0.8-4,6.7c-1.7,5.9,0.8,10.1,5.6,14.2c2.3,2,5.5,2.8,8.2,3.1c-0.9-0.9,1.6-1,3.3-1.7c-0.1-1.4,0.1-2.7,1.1-3.8
			c0.6-0.7,1.4-1,2.3-1.4c0-0.1,0.1-0.2,0.1-0.3C141.9,136.9,141.9,136.8,141.8,136.7z"/>
		<path fill="#C9C9C9" d="M138.4,142.4c-0.1-0.3-0.2-0.6-0.2-0.9c-0.1-0.3-0.5-1.3,0-0.2c-0.1-0.3-0.2-0.5-0.3-0.8
			c-7.8,0-14.5-5.3-13.2-16.5c-1-1.3-2.4,2.7-2.4,2.7s-3.9,11.3,6.1,15.6c3.3,1.5,6.3,2.5,7,2.1c1.5,0.3,2.8-0.7,3.3-1.4
			C138.5,142.9,138.4,142.6,138.4,142.4z"/>
		<path fill="#463117" d="M141.7,135.1c0-0.9,0.2-1.9,0.7-2.8c0-0.1,0.1-0.1,0.1-0.2c-3,0-6.4-0.3-9.3-1.5
			c-3.2-1.3-7.2-5.7-7.9-10.9c0,0-6.1,4.7-4.3,14.7c1.7,9.4,9.5,12.5,18.5,13c0-0.1-1-2.2-0.7-3.4c-5.1,0.4-10.8-1.6-13.5-6.1
			c-2.5-4.1-1.8-11.2-0.8-12.2C126.9,133.6,136,135.2,141.7,135.1z"/>
		<path fill="#463117" d="M157.8,147.4"/>
		<path fill="#463117" d="M142.6,129.4c-1.6,4.7-4.9,8.6-4.9,8.6s4.5-0.2,4.8-1c0.2-0.6,4.1-9.7,5.6-20.5
			C146.7,118.8,142.8,129,142.6,129.4z"/>
		<path fill="#E78825" d="M168.3,118.5c0,0,5.1,7.9,8.9,13.4c0.6,0.9-3.8,0.9-3.8,0.9L168.3,118.5z"/>
		<path fill="#E78825" d="M165.9,102.2c0,0,1.5,3.9,2.4,5.9c0.9,2.2,4.4,3.3,4.4,3.3s-1.8-1.9-1.8-6.7c0-2-2.6-2.8-2.6-2.8
			L165.9,102.2z"/>
		<path fill="#E78825" d="M167.4,104.4c0,0,3.2,3.8,9.1,1.7c5.9-2.1,6.5-9.7,6.5-11.8s-11.2,2.1-12.7,3
			C168.8,98.2,165.9,101.8,167.4,104.4z"/>
		<path fill="#E78825" d="M189.7,64c0,0-5.4-1.1-9.1,1.8c-3.6,2.9-4.7,5.1-4.7,5.1l6.1,4.8c0,0,3-1.4,3.9-5.3
			C186.8,66.6,186.2,64.8,189.7,64z"/>
		<path fill="#E78825" d="M169,93.5c2.3-3.3,6.2-4.8,9.3-5c5.3-0.4,7.7,1.4,7.7,1.4s-8.6,0.4-11.1,3.6c-4.6,6.1-11.4,6.6-12.4,5.2
			c1.2,0.1,2.6-0.6,4.1-1.9C167.5,95.9,168.3,94.5,169,93.5z"/>
		<path fill="#E78825" d="M183.5,105.2c0,0,9.5-3.3,7.7-6.6c-1.8-3.3-0.4-5.1-0.4-5.1s5.3,4,4,8.2c-0.8,2.6-2.2,4.5-9.9,8.1
			c-3.7,6.9-0.8,19.2-0.9,19.2c-0.3,0.1-5.2-2.4-4.8-14C179.3,111.5,179.6,106.7,183.5,105.2z"/>
		<path fill="#E78825" d="M171,69.9c4,2,9.5,4.9,9.5,4.9l-2.2,1.1c0.2,0.3,0.3,0.5,0.3,0.5l-2.2,1c0,0-5.4,3.9-8.7,6.4
			c1.1-3.4,4.3-8.7,4.3-8.7S173,72.6,171,69.9z"/>
		<path fill="#E78825" d="M157.7,152.8c12.3,0,16.5-6.2,16.5-6.2l-1.9,4.7c-0.7,2-8.5,8.3-14.5,8.3"/>
		<path fill="#E78825" d="M172.9,142.4c0,0-1.1,6.9-5.7,6.9c-3.9,0-5-5.8-5-7.1L172.9,142.4z"/>
		<path fill="#E78825" d="M180.4,131.9c-0.4-1.1-1.8-5.6-2.3-9.7c-0.5-4.9-0.3-12-0.3-12s1.2,4.7,2.3,5.4c1.1,0.8,3,5.9,3,5.9
			s1.1,7.6,1.6,10.2C183.2,132,182.1,131.2,180.4,131.9z"/>
		<path fill="#E78825" d="M191.4,101.6c0,0-2.6-0.9-3.3-6.5c-0.8-5.6,0.9-10.4,0.9-10.4s-0.2,7.7,0.8,9.2c0.9,1.5,1.7,2,2.7,3.9
			C193.5,99.8,192,101,191.4,101.6z"/>
		<path fill="#88CCED" d="M177.7,75.9"/>
		<path fill="#FDC169" d="M188.3,65.3l0.5-0.3C190.4,65,188.3,65.3,188.3,65.3z"/>
		<path fill="#FBAA1B" d="M168.9,68.3c0,0,2.4-0.4,3.6-2.2c1.2-1.8,4.6-5.4,10.1-5.5c5.5,0,10.9,1.5,10.9,1.5l-4.7,3
			c-0.5,0-1.4,0-2.8,0c-5.9,0.2-6.8,6-6.8,6l-20.9-2.9"/>
		<path fill="#FFFFFF" d="M166.9,100.6c0,0,2.8,2.8,7.2,1.9c4.3-0.9,7-2.8,7.2-6.1c0.2-3.3-0.9-4.6-0.9-4.6s-4.8,1.5-7.2,3.5
			C170.9,97.3,169.1,100.5,166.9,100.6z"/>
		<path fill="#C9C9C9" d="M170.3,99.6c0,0,2.4,1.1,5.2,0.2c3.6-1.2,3.8-4.9,3.8-4.9s2.2,6.4-4,7.7c-4.9,1-7.9-1.9-7.9-1.9
			L170.3,99.6z"/>
		<path fill="#463117" d="M167.5,135.7"/>
		<path fill="#463117" d="M186.3,75.3c2-1.7,0.5-3.2,0.7-5.1c0.1-1,0.2-1.9,0.5-2.5c1.8-2.9,6.2-3.8,6.2-3.8l2-0.4l-1.3-1.6
			c-0.2-0.2-5.7-5.5-14.3-2.7c-6,1.9-10.4,8.5-10.6,8.7l3,1.4c0-0.1,3.5-6.2,8.7-7.9c4.1-1.3,8-0.1,9.6,0.8c-1.7,0.7-4,2-5.4,4.1
			c-0.6,1-0.8,2.3-0.9,3.6c-0.1,1.7-0.3,3.2-1.5,4.2L186.3,75.3z"/>
		<path fill="#463117" d="M191.7,99.5c0,0-2.5-3.1-3.3-9.2c-0.3-2.4,0.2-7.1,1.1-8.9c-0.2,4.5,1,8.9,1,8.9S191.2,98.6,191.7,99.5z"
			/>
		<path fill="#463117" d="M178.4,72.2c0,0,0.8-3.5,3-5.3c3.1-2.5,7-1.2,7-1.2L189,64c-0.2-0.1-4.6-1.4-8.6,1.4
			c-4.1,2.9-4.6,5.5-4.6,5.7L178.4,72.2z"/>
		<path fill="#463117" d="M183.8,97.2c0,0,1.3-1.9,1.1-4c-0.1-1-0.6-2.1-1.4-2.5c-1.6-0.7-2.3,1.1-2.3,1.1S183.4,92.5,183.8,97.2z"
			/>
		<path fill="#463117" d="M167.5,135.7"/>
		<path fill="#463117" d="M169.3,100.1c-0.1,0.1-0.1,0.2-0.1,0.2s4.1,3.1,8.3,0c2.3-1.7,2-5.8,1.4-7.6c-1.8,0.4-3.3,1.1-4.6,2
			c1.6-1.4,3-2.5,3-2.5l1.8-0.5l3.6-1.2c0,0.3,1.3,6.4-2.4,10.5c-1.7,1.8-9.4,6-13.1-1.1L169.3,100.1z"/>
		<path fill="#463117" d="M169.7,100.6c-2.3,3.5-8.2,1.5-8.1-2.2c0,0,3.9,2.2,7.4-1.8c2-2.3,8.5-8.7,17.2-6.6
			C180.1,91.3,172.1,96.8,169.7,100.6z"/>
		<g>
			<path fill="#463117" d="M167.5,135.7"/>
		</g>
		<path fill="#463117" d="M187,110.5c-0.6,0.3-2.5,2.4-2.5,5.4c0,1.5,0.2,9.2,0.9,13.9c-1.1,0.7-1.9,0.9-3.1,1.6
			c-0.6-5.4-1-13.3-0.8-16.5c0.2-3.6,2.2-6,3.9-7.1c0.6-0.3,1.2-0.6,1.7-1c3.1-1.7,6.3-3.4,6.3-6.3c0-2.3-0.9-3-1.8-3.8l-0.1-0.1
			c-0.6-0.5-1.3-1.1-1.8-2c-1.1-2.6-1.3-9.2,0-10.8c0.7-0.8,2.5-3.6,1.9-5.5c-0.2-0.7-0.6-1.2-1.4-1.6c-0.8-0.4-1.8-0.6-3.1-0.6
			c-2.5,0-5.4,0.8-6.8,1.2c-5.2,1.6-11.5,6.4-13.3,7.8c-0.1,0-0.1,0.1-0.1,0.1l-1.2,0.8l0.7-1.2c0-0.1,4.6-7.6,12.8-10.3
			c1.6-0.5,4.7-1.4,7.8-1.4c1.8,0,3.4,0.3,4.6,0.9c1.5,0.8,2.5,2,2.9,3.5c1,3.8-2.3,8-2.4,8.1c-0.4,0.7-0.6,5.8,0.3,7.8
			c0.1,0.3,0.5,0.6,0.9,0.9c0.1,0.1,0.3,0.2,0.4,0.3c1.3,1,3.2,2.4,3.2,5.8c0,4.6-4.6,7.1-8.4,9.1
			C188.1,109.9,187.5,110.2,187,110.5z"/>
		<path fill="#463117" d="M181.5,74.8c-0.7-1.3-2.6-3.7-7-5.8c-4.9-2.4-10.5-3.6-16.7-3.6v0c0,0,0,0,0,0c0,0,0,0,0,0v0
			c-6.2,0-11.9,1.2-16.7,3.6c-4.4,2.1-6.2,4.5-7,5.8l-0.3,0.4l3.7,0.8l0.1-0.1l0.1-0.1c0.1-0.2,0.6-1.6,4.7-3.6
			c4.4-2.2,9.6-3.3,15.4-3.3c5.8,0,11,1.1,15.4,3.3c4.2,2,4.7,3.4,4.7,3.6l0.1,0.1l0.1,0.1l3.7-0.8L181.5,74.8z"/>
		<g>
			<g>
				<path fill="#463117" d="M186.3,75.3c2-1.7,0.5-3.2,0.7-5.1c0.1-1,0.2-1.9,0.5-2.5c1.8-2.9,6.2-3.8,6.2-3.8l2-0.4l-1.3-1.6
					c-0.2-0.2-5.7-5.5-14.3-2.7c-6,1.9-10.4,8.5-10.6,8.7l3,1.4c0-0.1,3.5-6.2,8.7-7.9c4.1-1.3,8-0.1,9.6,0.8c-1.7,0.7-4,2-5.4,4.1
					c-0.6,1-0.8,2.3-0.9,3.6c-0.1,1.7-0.3,3.2-1.5,4.2L186.3,75.3z"/>
			</g>
			<g>
				<path fill="#463117" d="M182.5,74.4l0.4-0.3c1.1-0.9,1.2-2.4,1.4-4c0.1-1.3,0.2-2.6,0.9-3.7c1.3-2,3.3-3.2,4.9-4
					c-1-0.4-2.8-1-5.1-1c-1.3,0-2.5,0.2-3.7,0.6c-4.8,1.5-8.1,7.1-8.5,7.7l-0.1,0.2l-3.5-1.7l0.2-0.3c0-0.1,4.5-6.9,10.7-8.9
					c1.7-0.5,3.3-0.8,5-0.8c6,0,9.6,3.6,9.6,3.6l1.7,2l-2.5,0.5c0,0-4.3,0.9-6,3.7c-0.3,0.5-0.4,1.4-0.4,2.3c0,0.6,0.1,1.1,0.2,1.7
					c0.3,1.2,0.5,2.4-1,3.6l-0.1,0.1L182.5,74.4z"/>
			</g>
		</g>
		<g>
			<g>
				<path fill="#463117" d="M178.4,72.2c0,0,0.8-3.5,3-5.3c3.1-2.5,7-1.2,7-1.2L189,64c-0.2-0.1-4.6-1.4-8.6,1.4
					c-4.1,2.9-4.6,5.5-4.6,5.7L178.4,72.2z"/>
			</g>
			<g>
				<path fill="#463117" d="M175.5,71.3l0-0.2c0-0.3,0.6-3,4.7-6c1.7-1.2,3.8-1.8,6-1.8c1.7,0,2.8,0.4,2.9,0.4l0.3,0.1l-0.7,2.3
					l-0.3-0.1c-0.1,0-1.1-0.3-2.4-0.3c-1.7,0-3.1,0.5-4.4,1.5c-2.1,1.7-2.9,5.1-2.9,5.1l-0.1,0.3L175.5,71.3z M188.3,65.3l0.4-1.1
					c-0.4-0.1-1.3-0.3-2.5-0.3c-2.1,0-4,0.6-5.6,1.7c-3.4,2.4-4.2,4.6-4.4,5.3l2.1,0.8c0.3-1,1.2-3.6,3.1-5.1c1.3-1,2.9-1.6,4.7-1.6
					C187,65,187.9,65.2,188.3,65.3z"/>
			</g>
		</g>
		<path fill="#463117" d="M165.1,146.7c-1.6-1.7-2.5-3.5-2.7-4c-0.1-0.3-0.3-0.9,0.2-1.4c0.4-0.4,1-0.5,1.8-0.5h1.3c1.4,0,3,0,4,0
			l0.8,0c1.1,0,1.7,0.3,2,0.6c0.4,0.4,0.5,0.9,0.2,1.6c-0.7,1.8-2.4,3.3-2.8,3.8c-0.6,0.5-1.5,0.9-2.4,0.9l0,0
			C166.5,147.6,165.7,147.3,165.1,146.7z"/>
		<path fill="#463117" d="M166.4,100.8l3.2-0.2c0,0-0.8,1.5-1.4,3.3c-0.6,2.1,0.6,5.2,0.6,5.2S164.6,104.3,166.4,100.8z"/>
		<path fill="#E78825" d="M157.8,89.3c-2.1,0-4.7-0.1-6.7-1.5c0,0,2.6,4.6,6.7,4.6l0-0.6l0,0.6c4.1,0,6.7-4.6,6.7-4.6
			C162.5,89.2,159.8,89.3,157.8,89.3z"/>
		<path fill="#463117" d="M163.4,89.2c-2.1,1.2-3.9,1.7-5.7,1.7c-1.8,0-3.6-0.5-5.7-1.7c0,0,3,3.7,5.6,3.7v0c0,0,0,0,0,0
			c0,0,0,0,0,0v0C160.4,92.9,163.4,89.2,163.4,89.2z"/>
		<g>
			<path fill="#463117" d="M170.5,156.1l-0.2-3c9.7-0.7,12.7-10,12.7-11h3C186,144.4,181.9,155.2,170.5,156.1z"/>
		</g>
		<path fill="#FFFFFF" d="M173.7,136.7c0.2-1,0.2-2,0-3c0.9-0.7,2.4-0.9,3.6-1.3c1-0.6,5.9,0.6,9.4-3.7c4.5-5.4,3.5-8.6,3.5-8.6
			c1.1,1.3,2.3,0.8,4,6.7c1.7,5.9-0.8,10.1-5.6,14.2c-2.3,2-5.5,2.8-8.2,3.1c0.9-0.9-1.6-1-3.3-1.7c0.1-1.4-0.1-2.7-1.1-3.8
			c-0.6-0.7-1.4-1-2.3-1.4c0-0.1-0.1-0.2-0.1-0.3C173.7,136.9,173.7,136.8,173.7,136.7z"/>
		<path fill="#C9C9C9" d="M177.2,142.4c0.1-0.3,0.2-0.6,0.2-0.9c0.1-0.3,0.5-1.3,0-0.2c0.1-0.3,0.2-0.5,0.3-0.8
			c7.8,0,14.5-5.3,13.2-16.5c1-1.3,2.4,2.7,2.4,2.7s3.9,11.3-6.1,15.6c-3.3,1.5-6.3,2.5-7,2.1c-1.5,0.3-2.8-0.7-3.3-1.4
			C177,142.9,177.1,142.6,177.2,142.4z"/>
		<path fill="#463117" d="M173.8,135.1c0-0.9-0.2-1.9-0.7-2.8c0-0.1-0.1-0.1-0.1-0.2c3,0,6.4-0.3,9.3-1.5c3.2-1.3,7.2-5.7,7.9-10.9
			c0,0,6.1,4.7,4.3,14.7c-1.7,9.4-9.5,12.5-18.5,13c0-0.1,1-2.2,0.7-3.4c5.1,0.4,10.8-1.6,13.5-6.1c2.5-4.1,1.8-11.2,0.8-12.2
			C188.6,133.6,179.5,135.2,173.8,135.1z"/>
		<g>
			<path fill="#463117" d="M157.7,147.4"/>
			<path fill="#463117" d="M177.5,137.4c-1.1-1.2-3-2.5-7.6-2.5c0,0-8.6,0-12.1,0l0,0c0,0,0,0,0,0c0,0,0,0,0,0l0,0
				c-3.5,0-12.1,0-12.1,0c-4.5,0-6.5,1.4-7.6,2.5c-1.6,1.7-1.8,4-0.7,7c2.9,7.8,6.9,15.7,20.4,15.7v0c0,0,0,0,0,0c0,0,0,0,0,0v0
				c13.5,0,17.5-7.9,20.4-15.7C179.3,141.5,179,139.1,177.5,137.4z M175.4,143.8c-1.4,3.9-5,13.4-17.6,13.4
				c-12.5,0-16.2-9.5-17.6-13.4c-0.8-2.2-0.7-3.8,0.2-4.8c0.6-0.7,2-1.5,5.1-1.5l3.3,0c2.4,0,5.4,0,9,0c3.6,0,6.6,0,9,0l3.3,0
				c3.1,0,4.5,0.8,5.1,1.5C176.1,140.1,176.1,141.7,175.4,143.8z"/>
		</g>
		<path fill="#463117" d="M172.9,129.4c1.6,4.7,4.9,8.6,4.9,8.6s-4.5-0.2-4.8-1c-0.2-0.6-4.1-9.7-5.6-20.5
			C168.8,118.8,172.8,129,172.9,129.4z"/>
	</g>
</g>
</svg>
