<?xml version="1.0" encoding="utf-8"?>
<!-- Generator: Adobe Illustrator 17.0.0, SVG Export Plug-In . SVG Version: 6.00 Build 0)  -->
<!DOCTYPE svg PUBLIC "-//W3C//DTD SVG 1.1//EN" "http://www.w3.org/Graphics/SVG/1.1/DTD/svg11.dtd">
<svg version="1.1" id="Layer_1" xmlns="http://www.w3.org/2000/svg" xmlns:xlink="http://www.w3.org/1999/xlink" x="0px" y="0px"
	 width="540px" height="1024px" viewBox="0 0 540 1024" enable-background="new 0 0 540 1024" xml:space="preserve">
<g id="b3sfpY.tif">
	<g>
		<path fill="#ED4846" d="M43.746,259.923c24.873-16.113,53.637-17.911,81.701-21.202c61.983-7.268,124.261-9.036,186.615-6.693
			c8.578,0.322,12.281-2.294,14.286-10.641c6.259-26.056,13.423-51.892,19.909-77.896c1.263-5.065,3.498-9.072,7.028-12.779
			c35.669-37.456,71.246-74.999,106.872-112.496c10.937-11.511,16.13-11.632,27.74-0.359c3.525,3.423,6.496,7.416,9.72,11.148
			c0,1.991,0,3.981,0,5.972c-3.877,0.163-5.383,3.566-7.541,5.837c-33.354,35.112-66.552,70.372-99.953,105.439
			c-4.52,4.745-7.246,9.903-8.725,16.275c-4.639,19.989-9.724,39.876-14.673,59.793c-2.886,11.616-2.894,11.324,8.643,12.317
			c32.342,2.783,64.734,5.335,96.309,13.568c4.154,1.083,8.317,2.298,12.269,3.948c4.752,1.984,11.37,3.095,11.475,9.462
			c0.116,7.05-6.973,8.016-11.978,10.079c-9.22,3.801-18.96,5.943-28.746,7.665c-68.563,12.064-137.804,13.546-207.15,12.779
			c-53.402-0.59-106.685-3.152-159.394-12.662c-15.627-2.819-30.981-6.458-44.407-15.574
			C43.746,262.578,43.746,261.251,43.746,259.923z M334.989,279.908c7.522-0.667,15.174-0.771,22.256-3.846
			c2.579-1.12,6.129-2.458,4.069-6.386c-1.992-3.799-4.504-1.388-7.378-0.418c-12.776,4.316-25.818,4.553-38.537-0.1
			c-2.933-1.073-5.41-3.432-7.357,0.257c-2.314,4.384,1.593,5.744,4.586,6.936C319.785,279.199,327.403,279.395,334.989,279.908z"/>
		<path fill="#ED4846" d="M461.78,578.857c-1.467,13.056-2.9,26.115-4.408,39.166c-5.094,44.094-10.459,88.159-15.107,132.299
			c-0.879,8.351-4.997,12.158-11.843,15.064c-23.683,10.055-48.671,15.348-73.874,19.123c-71.518,10.711-142.73,8.978-213.324-7.586
			c-13.221-3.102-26.243-6.994-38.583-12.841c-5.035-2.386-8.274-5.394-8.858-11.818c-4.198-46.192-8.845-92.343-13.376-138.505
			c-0.493-5.02-1.293-9.151,6.733-7.243c13.395,3.184,24.687-2.96,35.015-10.591c7.397-5.465,14.237-11.686,22.772-18.771
			c-3.885,13.901-7.555,26.078-10.628,38.403c-1.731,6.946-4.462,16.08,4.483,18.938c9.031,2.886,12.595-6.156,14.58-12.91
			c10.176-34.623,20.529-69.174,32.671-103.175c1.535-4.298,1.915-9.062,2.437-13.655c0.688-6.053-0.422-11.763-7.32-13.331
			c-6.519-1.482-10.854,2.421-13.17,8.079c-2.755,6.731-5.045,13.667-7.244,20.607c-8.153,25.725-26.328,43.354-47.783,57.855
			c-12.187,8.237-20.11,3.614-21.183-11.071c-0.656-8.973-0.073-17.867,2.171-26.639c8.09-31.628,22.218-60.222,43.117-85.335
			c3.789-4.553,8.22-8.713,12.894-12.365c14.966-11.696,25.265-9.711,34.975,6.312c0.344,0.567,0.644,1.166,1.037,1.697
			c3.96,5.359,6.573,13.546,15.839,9.057c6.242-3.024,7.874-13.267,4.011-21.462c-10.081-21.384-34.416-30.795-56.161-21.572
			c-15.027,6.374-26.713,17.088-37.105,29.349c-17.791,20.991-30.085,45.088-40.487,73.753c-1.353-10.407-2.404-17.925-3.291-25.462
			c-0.929-7.898-1.686-15.816-2.543-23.723c-6.462-59.611-12.825-119.233-19.521-178.818c-0.898-7.988-0.47-10.645,8.713-7.445
			c29.332,10.22,60.17,12.781,90.813,15.73c58.866,5.665,117.929,5.493,176.945,3.966c49.37-1.277,98.643-4.602,147.011-15.755
			c2.58-0.595,5.139-1.301,7.672-2.071c14.657-4.458,14.529-4.483,12.901,10.579c-7.265,67.192-14.454,134.393-21.666,201.591
			c-1.379,12.847-2.911,25.68-4.041,38.549c-0.676,7.697-3.628,13.593-9.937,18.393c-10.284,7.823-19.932,16.477-30.135,24.413
			c-2.853,2.219-6.932,6.636-10.224,3.023c-3.015-3.31,2.167-6.215,4.259-8.782c9.21-11.302,19.257-21.967,25.999-35.088
			c6.385-12.427,6.374-20.298,0.061-26.668c-6.839-6.901-18.68-7.889-29.703-2.65c-7.887,3.749-14.162,9.708-20.816,15.006
			c-0.694-0.392-1.612-0.638-1.643-0.968c-0.494-5.224,0.178-11.284-6.841-12.669c-7.151-1.411-9.751,4.292-12.468,9.21
			c-1.592,2.882-3.183,5.929-3.908,9.1c-5.592,24.464-25.709,35.779-43.936,48.773c-2.638,1.88-6.258,4.158-9.165,2.016
			c-3.724-2.744-0.969-6.786,0.204-9.971c14.542-39.483,30.71-78.31,47.368-116.938c1.442-3.344,3.144-6.64,4.061-10.132
			c1.334-5.08,1.103-10.187-4.278-13.012c-5.409-2.84-10.497-1.393-14.329,3.032c-2.106,2.433-3.58,5.57-4.775,8.611
			c-16.467,41.919-32.9,83.851-49.181,125.843c-3.578,9.228-11.321,12.659-19.783,14.642c-6.493,1.521-6.968-3.244-6.129-8.041
			c1.838-10.515,5.702-20.386,9.803-30.179c3.07-7.331,6.452-14.568,8.932-22.099c2.001-6.075,1.455-12.5-5.587-15.019
			c-6.711-2.401-10.524,2.293-12.954,7.85c-5.301,12.12-9.198,24.855-16.113,36.268c-6.224,10.274-12.814,20.245-23.368,26.651
			c-3.714,2.254-8.167,4.217-12.205,1.688c-4.295-2.69-1.881-7.142-1.213-10.934c2.339-13.273,8.714-24.938,14.662-36.774
			c1.933-3.846,3.902-7.677,5.709-11.582c1.818-3.929,1.936-7.826-1.581-10.92c-3.915-3.445-8.426-3.597-12.969-1.379
			c-3.084,1.506-5.139,4.163-6.61,7.208c-9.953,20.606-19.414,41.431-24.115,63.984c-3.956,18.979,5.338,28.763,24.543,26.301
			c14.723-1.887,24.921-11.153,34.435-22.197c2.74,24.432,11.25,28.555,32.493,16.005c5.79-3.421,9.054-4.795,14.115,2.073
			c5.332,7.237,14.344,5.098,22.142,2.548c10.129-3.312,18.056-10.361,28.345-18.012c-9.005,19.913-17.1,37.579-24.956,55.35
			c-1.998,4.519-3.594,9.288-4.727,14.095c-1.118,4.742-0.462,9.417,4.407,12.112c5.013,2.775,9.655,1.431,13.766-2.04
			c4.469-3.773,6.596-8.99,8.511-14.35c8.582-24.028,17.759-47.814,28.764-70.863c7.79-16.316,17.24-31.472,31.495-42.933
			c5.248-4.219,12.732-10.853,18.14-5.476c4.668,4.642-3.362,10.749-6.854,15.452c-7.898,10.638-17.281,20.161-24.188,31.555
			c-3.875,6.393-7.094,13.211-2.082,20.4c4.782,6.859,12.177,7.399,19.668,6.761c15.828-1.348,27.373-10.943,38.883-20.533
			c2.769-2.307,5.475-4.69,8.21-7.038C460.099,578.252,460.939,578.555,461.78,578.857z"/>
		<path fill="#ED4846" d="M109.445,780.635c107.101,30.753,212.41,30.868,319.31-0.193c-6.583,11.549-12.178,22.315-18.693,32.491
			c-5.203,8.127-7.458,16.793-7.963,26.175c-2.174,40.37-4.34,80.74-6.561,121.108c-0.327,5.951-1.549,11.915-1.27,17.822
			c0.448,9.499-4.634,14.6-12.338,18.405c-14.138,6.982-29.323,10.41-44.718,12.674c-49.895,7.338-99.682,7.148-149.218-3.249
			c-0.649-0.136-1.302-0.253-1.946-0.408c-34.607-8.292-38.331-13.371-40.341-48.457c-2.349-41.008-5.713-81.958-8.414-122.947
			c-0.511-7.764-4.751-13.633-8.351-19.905C122.856,803.548,116.653,793.01,109.445,780.635z"/>
	</g>
</g>
</svg>
